<svg width="17" height="12" viewBox="0 0 17 12" fill="none" xmlns="http://www.w3.org/2000/svg">
<path d="M0.838867 2C0.838867 1.46957 1.04827 0.960859 1.42102 0.585786C1.79376 0.210714 2.29931 0 2.82644 0H14.7519C15.279 0 15.7846 0.210714 16.1573 0.585786C16.5301 0.960859 16.7395 1.46957 16.7395 2V10C16.7395 10.5304 16.5301 11.0391 16.1573 11.4142C15.7846 11.7893 15.279 12 14.7519 12H2.82644C2.29931 12 1.79376 11.7893 1.42102 11.4142C1.04827 11.0391 0.838867 10.5304 0.838867 10V2ZM2.82644 1C2.56288 1 2.3101 1.10536 2.12373 1.29289C1.93736 1.48043 1.83266 1.73478 1.83266 2V2.217L8.78918 6.417L15.7457 2.217V2C15.7457 1.73478 15.641 1.48043 15.4546 1.29289C15.2683 1.10536 15.0155 1 14.7519 1H2.82644ZM15.7457 3.383L11.0173 6.238L15.7457 9.114V3.384V3.383ZM15.7119 10.261L10.0523 6.82L8.78918 7.583L7.52508 6.82L1.86644 10.26C1.92329 10.4724 2.04816 10.6601 2.22171 10.7938C2.39527 10.9276 2.60782 11.0001 2.82644 11H14.7519C14.9704 11.0001 15.1829 10.9278 15.3564 10.7942C15.5299 10.6607 15.6549 10.4732 15.7119 10.261ZM1.83266 9.114L6.5611 6.238L1.83266 3.383V9.113V9.114Z" fill="white"/>
</svg>
