<svg width="17" height="16" viewBox="0 0 17 16" fill="none" xmlns="http://www.w3.org/2000/svg">
<path d="M4.42083 1.32811C4.36217 1.25217 4.28812 1.18966 4.20359 1.14474C4.11907 1.09981 4.02602 1.07349 3.93062 1.06753C3.83521 1.06158 3.73964 1.07611 3.65025 1.11018C3.56085 1.14424 3.47969 1.19706 3.41214 1.26511L2.38456 2.30011C1.90456 2.78411 1.72767 3.46911 1.93736 4.07011C2.80766 6.5577 4.22336 8.81621 6.07947 10.6781C7.92983 12.5458 10.1743 13.9703 12.6464 14.8461C13.2437 15.0571 13.9244 14.8791 14.4054 14.3961L15.433 13.3621C15.5006 13.2941 15.5531 13.2125 15.587 13.1225C15.6208 13.0326 15.6353 12.9364 15.6294 12.8404C15.6234 12.7444 15.5973 12.6508 15.5526 12.5657C15.508 12.4807 15.4459 12.4061 15.3704 12.3471L13.0777 10.5531C12.9971 10.4902 12.9033 10.4465 12.8035 10.4254C12.7036 10.4042 12.6003 10.4062 12.5013 10.4311L10.3249 10.9781C10.0344 11.0512 9.73007 11.0473 9.4415 10.9669C9.15293 10.8864 8.88997 10.7322 8.67823 10.5191L6.23748 8.06211C6.02557 7.84915 5.87209 7.58459 5.79198 7.29421C5.71187 7.00383 5.70786 6.69752 5.78034 6.40511L6.32493 4.21511C6.34969 4.11551 6.35164 4.01155 6.33063 3.91107C6.30963 3.8106 6.26622 3.71624 6.20369 3.63511L4.42083 1.32811ZM2.66183 0.511112C2.83574 0.336061 3.04466 0.200242 3.27474 0.112673C3.50481 0.025104 3.75077 -0.0122114 3.99627 0.00320493C4.24177 0.0186212 4.48121 0.0864163 4.69868 0.202089C4.91615 0.317761 5.10667 0.478663 5.25761 0.674112L7.04046 2.98011C7.36742 3.40311 7.4827 3.95411 7.35351 4.47411L6.8099 6.66411C6.7818 6.77754 6.78332 6.89636 6.81431 7.00902C6.84531 7.12169 6.90472 7.22437 6.9868 7.30711L9.42854 9.76411C9.51086 9.84686 9.61308 9.90675 9.72523 9.93795C9.83739 9.96914 9.95566 9.97058 10.0685 9.94211L12.2439 9.39511C12.499 9.33095 12.7651 9.32597 13.0224 9.38054C13.2796 9.43511 13.5211 9.54781 13.7287 9.71011L16.0203 11.5041C16.8442 12.1491 16.9197 13.3741 16.1823 14.1151L15.1547 15.1491C14.4193 15.8891 13.3202 16.2141 12.2956 15.8511C9.67319 14.9226 7.29216 13.4119 5.32916 11.4311C3.36075 9.45613 1.85945 7.06057 0.936611 4.42211C0.57686 3.39211 0.899841 2.28511 1.63524 1.54511L2.66282 0.511112H2.66183Z" fill="white"/>
</svg>
