<svg width="47" height="47" viewBox="0 0 47 47" fill="none" xmlns="http://www.w3.org/2000/svg">
<circle cx="23.5" cy="23.5" r="22" stroke="#D5B887" stroke-width="3"/>
<path fill-rule="evenodd" clip-rule="evenodd" d="M28.3776 15.7058L28.3251 15.665C28.2241 14.8985 27.8572 14.0999 27.2844 13.4268C26.354 12.333 24.8373 11.5 22.8073 11.5C20.8065 11.5 19.3966 12.4123 18.5647 13.5434C18.1765 14.0665 17.8992 14.6634 17.7498 15.2975C17.7227 15.4162 17.7009 15.5361 17.6845 15.6568L17.6215 15.7052C16.9658 16.2133 16.4846 16.8293 16.5989 17.5357C16.7086 18.2182 17.3257 18.6336 17.8997 18.8873C18.0459 18.9519 18.2029 19.0126 18.3705 19.0693C18.2861 19.7269 18.3429 20.3949 18.5369 21.0288C18.7309 21.6628 19.0578 22.2481 19.4958 22.7458C19.9337 23.2435 20.4727 23.6422 21.0768 23.9153C21.6809 24.1884 22.3363 24.3297 22.9992 24.3297C23.6622 24.3297 24.3175 24.1884 24.9216 23.9153C25.5257 23.6422 26.0647 23.2435 26.5027 22.7458C26.9406 22.2481 27.2675 21.6628 27.4615 21.0288C27.6556 20.3949 27.7123 19.7269 27.628 19.0693C27.7956 19.0129 27.9525 18.9523 28.0987 18.8873C28.6727 18.6336 29.2893 18.2182 29.3996 17.5357C29.5139 16.8293 29.0326 16.2133 28.377 15.7052M18.8838 16.5581C18.808 16.3399 18.7881 15.9893 18.8867 15.5559C18.9836 15.133 19.1842 14.6692 19.4992 14.2399V15.875C19.4992 16.0297 19.5607 16.1781 19.6701 16.2875C19.7795 16.3969 19.9278 16.4583 20.0826 16.4583C20.2373 16.4583 20.3856 16.3969 20.495 16.2875C20.6044 16.1781 20.6659 16.0297 20.6659 15.875V13.1975C21.146 12.9245 21.7264 12.7337 22.4159 12.6812V14.7083C22.4159 14.863 22.4773 15.0114 22.5867 15.1208C22.6961 15.2302 22.8445 15.2917 22.9992 15.2917C23.1539 15.2917 23.3023 15.2302 23.4117 15.1208C23.5211 15.0114 23.5826 14.863 23.5826 14.7083V12.7174C24.1985 12.795 24.7932 12.9932 25.3326 13.3007V15.875C25.3326 16.0297 25.394 16.1781 25.5034 16.2875C25.6128 16.3969 25.7612 16.4583 25.9159 16.4583C26.0706 16.4583 26.219 16.3969 26.3284 16.2875C26.4378 16.1781 26.4992 16.0297 26.4992 15.875V14.3105C27.1438 15.1365 27.2949 16.0278 27.1135 16.5627C27.0685 16.6951 27.0726 16.8393 27.125 16.9689C27.1774 17.0985 27.2746 17.205 27.399 17.269C27.5233 17.3329 27.6665 17.3501 27.8024 17.3174C27.9383 17.2847 28.058 17.2042 28.1396 17.0907C28.2545 17.2511 28.2504 17.3362 28.2481 17.3497C28.2405 17.3963 28.1512 17.5888 27.6268 17.821C27.3993 17.9213 27.1286 18.0117 26.8247 18.0917L26.8107 18.0952C26.4811 18.1803 26.1142 18.2527 25.7216 18.3122C24.9935 18.4171 24.2597 18.4775 23.5242 18.493C23.0186 18.5058 22.5127 18.5004 22.0076 18.4767C21.4265 18.4503 20.8471 18.395 20.2716 18.311C19.9067 18.2581 19.545 18.1861 19.1877 18.0952L19.1737 18.0917C18.8995 18.0232 18.6313 17.9327 18.3716 17.821C17.8472 17.5888 17.758 17.3963 17.7504 17.3497C17.7481 17.3362 17.744 17.2511 17.8589 17.0907C17.9406 17.2047 18.0607 17.2855 18.1972 17.3182C18.3336 17.3509 18.4773 17.3333 18.6018 17.2686C18.7263 17.204 18.8234 17.0966 18.8752 16.9662C18.927 16.8358 18.93 16.6911 18.8838 16.5587M19.5121 19.3639C19.7061 19.4016 19.906 19.4361 20.1117 19.4672C20.7347 19.5605 21.4056 19.62 22.0881 19.648C22.6964 19.6731 23.3055 19.6731 23.9139 19.648C24.5929 19.62 25.2614 19.5605 25.8815 19.4672C26.0891 19.4368 26.2908 19.4024 26.4864 19.3639C26.5279 19.847 26.4685 20.3334 26.3121 20.7924C26.1557 21.2513 25.9056 21.6728 25.5778 22.03C25.2499 22.3872 24.8514 22.6724 24.4075 22.8675C23.9637 23.0626 23.4841 23.1634 22.9992 23.1634C22.5144 23.1634 22.0348 23.0626 21.5909 22.8675C21.147 22.6724 20.7485 22.3872 20.4206 22.03C20.0928 21.6728 19.8427 21.2513 19.6863 20.7924C19.5299 20.3334 19.4706 19.847 19.5121 19.3639Z" fill="#D5B887"/>
<path fill-rule="evenodd" clip-rule="evenodd" d="M25.9167 24.6211C26.3005 24.6882 26.6913 24.7663 27.0833 24.8556C30.2584 25.5807 33.5 27.0303 33.5 29.0019V32.5019H12.5V29.0019C12.5 27.0303 15.7416 25.5807 18.9167 24.8556C19.3035 24.7675 19.6925 24.6893 20.0833 24.6211V27.2519H25.9167V24.6211ZM17.75 26.3711C18.1315 26.2544 18.5229 26.1488 18.9167 26.0538V28.4186H27.0833V26.0543C27.6743 26.1954 28.2583 26.3644 28.8333 26.5607V31.3353H30V27.0168C30.1696 27.0923 30.3325 27.1699 30.4888 27.2496C31.1521 27.5868 31.6438 27.9344 31.9553 28.2669C32.2616 28.5936 32.3333 28.8345 32.3333 29.0019V31.3353H13.6667V29.0019C13.6667 28.8345 13.7384 28.5936 14.0447 28.2669C14.3562 27.9344 14.8479 27.5868 15.5112 27.2496C15.8431 27.0804 16.203 26.9218 16.5833 26.7742V31.3353H17.75V26.3711Z" fill="#D5B887"/>
</svg>
