<svg width="47" height="47" viewBox="0 0 47 47" fill="none" xmlns="http://www.w3.org/2000/svg">
<circle cx="23.5" cy="23.5" r="22" stroke="#D5B887" stroke-width="3"/>
<path d="M31.0667 10H14.6C13.1641 10 12 11.1641 12 12.6V33.4C12 34.8359 13.1641 36 14.6 36H31.0667C32.5026 36 33.6667 34.8359 33.6667 33.4V12.6C33.6667 11.1641 32.5026 10 31.0667 10Z" stroke="#D5B887" stroke-width="0.5" stroke-linecap="round" stroke-linejoin="round"/>
<path d="M30.2001 13.4688H15.4668V32.5354H30.2001V13.4688Z" stroke="#D5B887" stroke-width="0.5" stroke-linecap="round" stroke-linejoin="round"/>
<path d="M25.8666 28.1992H23.2666" stroke="#D5B887" stroke-width="0.5" stroke-linecap="round" stroke-linejoin="round"/>
<path d="M25.8666 24.7305H23.2666" stroke="#D5B887" stroke-width="0.5" stroke-linecap="round" stroke-linejoin="round"/>
<path d="M25.8666 21.2695H23.2666" stroke="#D5B887" stroke-width="0.5" stroke-linecap="round" stroke-linejoin="round"/>
<circle cx="19.8003" cy="28.2026" r="0.866667" fill="white" stroke="#D5B887" stroke-width="0.5" stroke-linecap="round" stroke-linejoin="round"/>
<circle cx="19.8003" cy="24.7339" r="0.866667" fill="white" stroke="#D5B887" stroke-width="0.5" stroke-linecap="round" stroke-linejoin="round"/>
<circle cx="19.8003" cy="21.269" r="0.866667" fill="white" stroke="#D5B887" stroke-width="0.5" stroke-linecap="round" stroke-linejoin="round"/>
<path d="M19.7998 10V16.9333H25.8665V10" stroke="#D5B887" stroke-width="0.5" stroke-linecap="round" stroke-linejoin="round"/>
</svg>
