<svg width="47" height="47" viewBox="0 0 47 47" fill="none" xmlns="http://www.w3.org/2000/svg">
<circle cx="23.5" cy="23.5" r="22" stroke="#D5B887" stroke-width="3"/>
<path d="M33.979 19.4153L32.3906 14.3438C32.3252 14.1375 32.1361 14 31.9195 14H14.0827C13.8661 14 13.677 14.141 13.6117 14.3438L12.0233 19.4153C11.9998 19.4889 11.994 19.5669 12.0063 19.6432C12.0187 19.7194 12.0489 19.7916 12.0945 19.8539C12.1401 19.9163 12.1997 19.9669 12.2686 20.0019C12.3375 20.0368 12.4136 20.0549 12.4908 20.0548H13.3985V32.5083C13.3985 32.7799 13.6185 33 13.8901 33H32.1052C32.3768 33 32.5968 32.7799 32.5968 32.5083V20.0548H33.5045C33.6627 20.0548 33.8105 19.9792 33.8999 19.8554C33.9893 19.7316 34.0271 19.5632 33.979 19.4153ZM25.395 32.5L20.395 32.332V27.832C20.395 26.663 21.8322 25.332 23.0011 25.332C24.1701 25.332 25.395 26.6632 25.395 27.8322V32.5ZM31.9195 32.5083L26 32.5L26.1023 27.8322C26.1023 26.12 24.7098 24.7309 23.0011 24.7309C21.2924 24.7309 19.8999 26.1234 19.8999 27.8322V32.5083L14.0827 32.5V20.0548H31.9195V32.5083ZM12.4908 19.4153L14.0827 14.6758H31.9195L33.5045 19.4153H23.2893H13.3985H12.4908Z" fill="#D5B887"/>
</svg>
