<svg width="47" height="47" viewBox="0 0 47 47" fill="none" xmlns="http://www.w3.org/2000/svg">
<circle cx="23.5" cy="23.5" r="22" stroke="#D5B887" stroke-width="3"/>
<mask id="path-2-inside-1_2169_1068" fill="white">
<path d="M13.1498 30.7757C13.3618 30.7757 13.5853 30.71 13.8088 30.5556V18.7874C13.8088 18.3914 13.8869 18.2374 14.2443 18.0507L24.597 12.1769C24.6303 11.451 24.161 11 23.5249 11C23.2342 11 22.9216 11.077 22.5862 11.275L13.2284 16.5767C12.1339 17.2037 12 17.4017 12 18.6556V29.1811C12 30.1267 12.457 30.7757 13.1498 30.7757ZM17.6173 33.3163C17.8184 33.3163 18.0414 33.2506 18.2763 33.0962V21.328C18.2763 20.8991 18.3321 20.7893 18.7004 20.5913L29.0526 14.7062C29.086 13.9916 28.6285 13.5298 27.9805 13.5298C27.7013 13.5298 27.3773 13.6176 27.0537 13.7935L17.6726 19.1061C16.5781 19.7222 16.4552 19.9531 16.4552 21.1849V31.7217C16.4552 32.6673 16.9355 33.3163 17.6169 33.3163M22.3965 36C22.7872 36 23.2566 35.8461 23.815 35.5378L32.5705 30.5885C33.5978 30.0056 34 29.4012 34 28.1689L33.9776 18.2046C33.9776 16.8846 33.4973 16.214 32.6596 16.214C32.2913 16.214 31.822 16.3566 31.2974 16.6537L22.5195 21.6359C21.4698 22.2412 21.101 22.8569 21.101 24.0558V34.0202C21.101 35.2961 21.5584 36 22.3965 36ZM22.9998 33.8555C22.944 33.8442 22.9216 33.8114 22.9216 33.7344L22.9998 24.0887C22.9998 23.671 23.1227 23.4505 23.5025 23.2417L31.9563 18.3473C31.9897 18.3257 32.023 18.3257 32.0678 18.3365C32.1126 18.3477 32.146 18.3806 32.146 18.4575L32.1126 28.1361C32.1126 28.4988 31.9787 28.7743 31.6099 28.9939L23.1113 33.8442C23.0946 33.8539 23.076 33.8598 23.0567 33.8617C23.0375 33.8636 23.018 33.8617 22.9998 33.8555Z"/>
</mask>
<path d="M13.1498 30.7757C13.3618 30.7757 13.5853 30.71 13.8088 30.5556V18.7874C13.8088 18.3914 13.8869 18.2374 14.2443 18.0507L24.597 12.1769C24.6303 11.451 24.161 11 23.5249 11C23.2342 11 22.9216 11.077 22.5862 11.275L13.2284 16.5767C12.1339 17.2037 12 17.4017 12 18.6556V29.1811C12 30.1267 12.457 30.7757 13.1498 30.7757ZM17.6173 33.3163C17.8184 33.3163 18.0414 33.2506 18.2763 33.0962V21.328C18.2763 20.8991 18.3321 20.7893 18.7004 20.5913L29.0526 14.7062C29.086 13.9916 28.6285 13.5298 27.9805 13.5298C27.7013 13.5298 27.3773 13.6176 27.0537 13.7935L17.6726 19.1061C16.5781 19.7222 16.4552 19.9531 16.4552 21.1849V31.7217C16.4552 32.6673 16.9355 33.3163 17.6169 33.3163M22.3965 36C22.7872 36 23.2566 35.8461 23.815 35.5378L32.5705 30.5885C33.5978 30.0056 34 29.4012 34 28.1689L33.9776 18.2046C33.9776 16.8846 33.4973 16.214 32.6596 16.214C32.2913 16.214 31.822 16.3566 31.2974 16.6537L22.5195 21.6359C21.4698 22.2412 21.101 22.8569 21.101 24.0558V34.0202C21.101 35.2961 21.5584 36 22.3965 36ZM22.9998 33.8555C22.944 33.8442 22.9216 33.8114 22.9216 33.7344L22.9998 24.0887C22.9998 23.671 23.1227 23.4505 23.5025 23.2417L31.9563 18.3473C31.9897 18.3257 32.023 18.3257 32.0678 18.3365C32.1126 18.3477 32.146 18.3806 32.146 18.4575L32.1126 28.1361C32.1126 28.4988 31.9787 28.7743 31.6099 28.9939L23.1113 33.8442C23.0946 33.8539 23.076 33.8598 23.0567 33.8617C23.0375 33.8636 23.018 33.8617 22.9998 33.8555Z" fill="#D5B887" fill-opacity="0.78"/>
<path d="M13.8088 30.5556L14.093 30.967L14.3088 30.8179V30.5556H13.8088ZM14.2443 18.0507L14.4759 18.4938L14.4835 18.4898L14.491 18.4856L14.2443 18.0507ZM24.597 12.1769L24.8437 12.6118L25.0838 12.4756L25.0964 12.1999L24.597 12.1769ZM22.5862 11.275L22.8327 11.7101L22.8404 11.7056L22.5862 11.275ZM13.2284 16.5767L12.9819 16.1417L12.9799 16.1429L13.2284 16.5767ZM18.2763 33.0962L18.5509 33.514L18.7763 33.3659V33.0962H18.2763ZM18.7004 20.5913L18.9372 21.0318L18.9475 21.0259L18.7004 20.5913ZM29.0526 14.7062L29.2997 15.1409L29.5392 15.0048L29.5521 14.7296L29.0526 14.7062ZM27.0537 13.7935L26.8148 13.3542L26.8073 13.3584L27.0537 13.7935ZM17.6726 19.1061L17.9179 19.5418L17.919 19.5411L17.6726 19.1061ZM23.815 35.5378L24.0567 35.9755L24.0611 35.973L23.815 35.5378ZM32.5705 30.5885L32.8166 31.0237L32.8173 31.0233L32.5705 30.5885ZM34 28.1689L34.5 28.1689L34.5 28.1678L34 28.1689ZM33.9776 18.2046L33.4776 18.2046L33.4776 18.2057L33.9776 18.2046ZM31.2974 16.6537L31.051 16.2186L31.0505 16.2188L31.2974 16.6537ZM22.5195 21.6359L22.2726 21.201L22.2697 21.2027L22.5195 21.6359ZM22.9998 33.8555L23.1621 33.3825L23.131 33.3719L23.0988 33.3654L22.9998 33.8555ZM22.9216 33.7344L22.4216 33.7303V33.7344H22.9216ZM22.9998 24.0887L23.4998 24.0927V24.0887H22.9998ZM23.5025 23.2417L23.7434 23.6799L23.753 23.6744L23.5025 23.2417ZM31.9563 18.3473L32.2069 18.78L32.2176 18.7738L32.228 18.767L31.9563 18.3473ZM32.0678 18.3365L32.1898 17.8515L32.185 17.8504L32.0678 18.3365ZM32.146 18.4575L32.646 18.4593V18.4575H32.146ZM32.1126 28.1361L31.6126 28.1344V28.1361H32.1126ZM31.6099 28.9939L31.8578 29.4282L31.8657 29.4235L31.6099 28.9939ZM23.1113 33.8442L22.8634 33.4099L22.8608 33.4114L23.1113 33.8442ZM13.1498 31.2757C13.4708 31.2757 13.7923 31.1747 14.093 30.967L13.5246 30.1442C13.3782 30.2453 13.2528 30.2757 13.1498 30.2757V31.2757ZM14.3088 30.5556V18.7874H13.3088V30.5556H14.3088ZM14.3088 18.7874C14.3088 18.6077 14.3302 18.5824 14.3256 18.5904C14.3182 18.6033 14.3244 18.573 14.4759 18.4938L14.0127 17.6075C13.8068 17.7152 13.5953 17.8552 13.4594 18.0908C13.3264 18.3214 13.3088 18.5711 13.3088 18.7874H14.3088ZM14.491 18.4856L24.8437 12.6118L24.3502 11.742L13.9975 17.6158L14.491 18.4856ZM25.0964 12.1999C25.1184 11.7216 24.9743 11.2885 24.675 10.9724C24.3768 10.6575 23.9632 10.5 23.5249 10.5V11.5C23.7227 11.5 23.8618 11.568 23.9489 11.66C24.035 11.7509 24.1089 11.9063 24.0975 12.154L25.0964 12.1999ZM23.5249 10.5C23.1396 10.5 22.7399 10.6036 22.332 10.8444L22.8404 11.7056C23.1034 11.5503 23.3287 11.5 23.5249 11.5V10.5ZM22.3397 10.84L12.9819 16.1417L13.4749 17.0118L22.8326 11.71L22.3397 10.84ZM12.9799 16.1429C12.4522 16.4451 12.0229 16.7096 11.7747 17.1243C11.5236 17.544 11.5 18.0447 11.5 18.6556H12.5C12.5 18.0126 12.5433 17.7873 12.6328 17.6378C12.7252 17.4833 12.9101 17.3353 13.4769 17.0106L12.9799 16.1429ZM11.5 18.6556V29.1811H12.5V18.6556H11.5ZM11.5 29.1811C11.5 29.7281 11.6314 30.2371 11.9086 30.6241C12.1945 31.0234 12.6276 31.2757 13.1498 31.2757V30.2757C12.9792 30.2757 12.8373 30.2035 12.7216 30.0419C12.5971 29.868 12.5 29.5797 12.5 29.1811H11.5ZM17.6173 33.8163C17.9312 33.8163 18.2481 33.7131 18.5509 33.514L18.0017 32.6784C17.8347 32.7881 17.7057 32.8163 17.6173 32.8163V33.8163ZM18.7763 33.0962V21.328H17.7763V33.0962H18.7763ZM18.7763 21.328C18.7763 21.2272 18.7799 21.1697 18.7853 21.1335C18.79 21.1019 18.7936 21.1048 18.7852 21.1196C18.7762 21.1356 18.7694 21.1371 18.7878 21.1226C18.8109 21.1045 18.8536 21.0766 18.9372 21.0317L18.4636 20.1509C18.2745 20.2526 18.0516 20.3859 17.9153 20.6265C17.7831 20.8596 17.7763 21.1185 17.7763 21.328H18.7763ZM18.9475 21.0259L29.2997 15.1409L28.8055 14.2716L18.4533 20.1566L18.9475 21.0259ZM29.5521 14.7296C29.574 14.2586 29.4341 13.8264 29.1375 13.5088C28.8409 13.1911 28.4263 13.0298 27.9805 13.0298V14.0298C28.1827 14.0298 28.3209 14.0994 28.4066 14.1912C28.4925 14.2832 28.5645 14.4392 28.5532 14.6829L29.5521 14.7296ZM27.9805 13.0298C27.6016 13.0298 27.1959 13.147 26.8148 13.3543L27.2926 14.2328C27.5586 14.0881 27.801 14.0298 27.9805 14.0298V13.0298ZM26.8073 13.3584L17.4262 18.671L17.919 19.5411L27.3001 14.2286L26.8073 13.3584ZM17.4273 18.6703C16.8921 18.9716 16.4661 19.2413 16.221 19.6636C15.9763 20.0853 15.9552 20.5857 15.9552 21.1849H16.9552C16.9552 20.5522 16.9956 20.3213 17.0859 20.1656C17.1759 20.0105 17.3586 19.8566 17.9179 19.5418L17.4273 18.6703ZM15.9552 21.1849V31.7217H16.9552V21.1849H15.9552ZM15.9552 31.7217C15.9552 32.2739 16.0949 32.7834 16.377 33.1689C16.6659 33.5637 17.0998 33.8163 17.6169 33.8163V32.8163C17.4526 32.8163 17.3055 32.7444 17.184 32.5783C17.0556 32.4029 16.9552 32.1151 16.9552 31.7217H15.9552ZM22.3965 36.5C22.9099 36.5 23.467 36.301 24.0567 35.9755L23.5734 35.1001C23.0462 35.3911 22.6646 35.5 22.3965 35.5V36.5ZM24.0611 35.973L32.8166 31.0237L32.3245 30.1532L23.569 35.1025L24.0611 35.973ZM32.8173 31.0233C33.3674 30.7112 33.8068 30.3623 34.0982 29.8813C34.3911 29.3977 34.5 28.8378 34.5 28.1689H33.5C33.5 28.7324 33.4078 29.0908 33.2428 29.3632C33.0763 29.6382 32.801 29.8828 32.3238 30.1536L32.8173 31.0233ZM34.5 28.1678L34.4776 18.2035L33.4776 18.2057L33.5 28.1701L34.5 28.1678ZM34.4776 18.2046C34.4776 17.4969 34.3511 16.8843 34.047 16.4343C33.7232 15.9552 33.2335 15.714 32.6596 15.714V16.714C32.9235 16.714 33.0927 16.8081 33.2185 16.9942C33.364 17.2096 33.4776 17.5922 33.4776 18.2046H34.4776ZM32.6596 15.714C32.1736 15.714 31.6178 15.8977 31.051 16.2186L31.5437 17.0888C32.0262 16.8156 32.409 16.714 32.6596 16.714V15.714ZM31.0505 16.2188L22.2727 21.201L22.7663 22.0707L31.5442 17.0885L31.0505 16.2188ZM22.2697 21.2027C21.7065 21.5275 21.2703 21.8862 20.9857 22.3696C20.7002 22.8544 20.601 23.4074 20.601 24.0558H21.601C21.601 23.5053 21.6861 23.151 21.8474 22.8769C22.0097 22.6014 22.2827 22.3496 22.7692 22.069L22.2697 21.2027ZM20.601 24.0558V34.0202H21.601V24.0558H20.601ZM20.601 34.0202C20.601 34.7051 20.7216 35.3115 21.0158 35.762C21.3294 36.2421 21.8126 36.5 22.3965 36.5V35.5C22.1423 35.5 21.9777 35.406 21.853 35.2151C21.709 34.9947 21.601 34.6112 21.601 34.0202H20.601ZM23.0988 33.3654C23.1545 33.3766 23.2749 33.4183 23.3584 33.5461C23.3935 33.6 23.4086 33.6496 23.4152 33.681C23.4216 33.7112 23.4216 33.7314 23.4216 33.7344H22.4216C22.4216 33.8057 22.4288 33.9516 22.5212 34.093C22.6298 34.2594 22.7893 34.323 22.9008 34.3456L23.0988 33.3654ZM23.4216 33.7384L23.4997 24.0927L22.4998 24.0846L22.4216 33.7303L23.4216 33.7384ZM23.4998 24.0887C23.4998 23.9253 23.5246 23.8661 23.5401 23.8397C23.5554 23.8136 23.5959 23.7609 23.7434 23.6798L23.2615 22.8035C23.0293 22.9313 22.8184 23.0933 22.6773 23.3341C22.5364 23.5745 22.4998 23.8344 22.4998 24.0887H23.4998ZM23.753 23.6744L32.2069 18.78L31.7058 17.9145L23.2519 22.809L23.753 23.6744ZM32.228 18.767C32.1745 18.8016 32.1106 18.8234 32.0449 18.8283C31.9893 18.8325 31.9516 18.8228 31.9507 18.8225L32.185 17.8504C32.0809 17.8253 31.8843 17.7983 31.6847 17.9275L32.228 18.767ZM31.9459 18.8214C31.8822 18.8054 31.7889 18.7625 31.7188 18.6657C31.6526 18.5744 31.646 18.4883 31.646 18.4575H32.646C32.646 18.3498 32.6226 18.2088 32.5286 18.079C32.4306 17.9438 32.2982 17.8788 32.1898 17.8516L31.9459 18.8214ZM31.646 18.4558L31.6126 28.1344L32.6126 28.1378L32.646 18.4593L31.646 18.4558ZM31.6126 28.1361C31.6126 28.2547 31.5912 28.3247 31.5636 28.3738C31.5361 28.4228 31.4813 28.4886 31.3541 28.5643L31.8657 29.4235C32.1074 29.2796 32.3039 29.0978 32.4355 28.8635C32.5671 28.6293 32.6126 28.3802 32.6126 28.1361H31.6126ZM31.3621 28.5596L22.8634 33.4099L23.3591 34.2785L31.8578 29.4282L31.3621 28.5596ZM22.8608 33.4114C22.9064 33.3851 22.9568 33.369 23.0085 33.364L23.1049 34.3594C23.1952 34.3506 23.2828 34.3226 23.3617 34.277L22.8608 33.4114ZM23.0085 33.364C23.0518 33.3598 23.105 33.363 23.1621 33.3825L22.8375 34.3284C22.931 34.3605 23.0231 34.3673 23.1049 34.3594L23.0085 33.364Z" fill="#D5B887" mask="url(#path-2-inside-1_2169_1068)"/>
</svg>
