<svg width="47" height="47" viewBox="0 0 47 47" fill="none" xmlns="http://www.w3.org/2000/svg">
<circle cx="23.5" cy="23.5" r="22" stroke="#D5B887" stroke-width="3"/>
<path d="M25.9403 35.4892L16.7376 32.8067V34.3739H11.9043V24.5212H19.605L28.4959 27.7752V29.7267H34.3745V32.8864L25.9403 35.4892ZM13.1114 33.1656H15.5281V25.7295H13.1114V33.1656ZM25.8775 34.2072L33.1371 31.9947V30.935H24.7743L21.0224 29.7122L21.4211 28.5558L24.9567 29.7267H27.2876V28.615L19.4141 25.7295H16.7376V31.5392L25.8775 34.2072ZM31.9578 26.8448V18.3864L25.312 13.7392L18.6661 18.3864V21.6393H17.4578V17.8077L25.312 12.207L33.1661 17.8064V26.8448H31.9578ZM26.0321 19.1997H27.0085V18.2233H26.0321V19.1997ZM23.6155 19.1997H24.5918V18.2233H23.6155V19.1997ZM26.0321 21.6163H27.0085V20.64H26.0321V21.6163ZM23.6155 21.6163H24.5918V20.64H23.6155V21.6163Z" fill="#D5B887"/>
</svg>
