<svg width="47" height="47" viewBox="0 0 47 47" fill="none" xmlns="http://www.w3.org/2000/svg">
<circle cx="23.5" cy="23.5" r="22" stroke="#D5B887" stroke-width="3"/>
<path d="M12 33.25V32H22.625V18.175C22.035 18.0675 21.5142 17.8 21.0625 17.3725C20.6108 16.945 20.3233 16.4042 20.2 15.75H15.895L19.5 24.765C19.4517 25.5983 19.0646 26.3075 18.3388 26.8925C17.6129 27.4775 16.75 27.77 15.75 27.77C14.75 27.77 13.8871 27.4775 13.1612 26.8925C12.4354 26.3075 12.0483 25.5983 12 24.765L15.6063 15.75H13.25V14.5H20.2C20.3375 13.8033 20.685 13.2125 21.2425 12.7275C21.8 12.2425 22.4692 12 23.25 12C24.0308 12 24.7 12.2425 25.2575 12.7275C25.815 13.2125 26.1625 13.8033 26.3 14.5H33.25V15.75H30.895L34.5 24.765C34.4517 25.5983 34.0646 26.3075 33.3387 26.8925C32.6129 27.4775 31.75 27.77 30.75 27.77C29.75 27.77 28.8871 27.4775 28.1612 26.8925C27.4354 26.3075 27.0483 25.5983 27 24.765L30.605 15.75H26.3012C26.1771 16.4042 25.8892 16.945 25.4375 17.3725C24.9858 17.8 24.465 18.0679 23.875 18.1762V32H34.5V33.25H12ZM28.2375 24.645H33.2625L30.75 18.365L28.2375 24.645ZM13.2375 24.645H18.2625L15.75 18.365L13.2375 24.645ZM23.25 17C23.7642 17 24.2054 16.8163 24.5738 16.4488C24.9413 16.0804 25.125 15.6392 25.125 15.125C25.125 14.6108 24.9413 14.1696 24.5738 13.8012C24.2054 13.4337 23.7642 13.25 23.25 13.25C22.7358 13.25 22.2946 13.4337 21.9262 13.8012C21.5579 14.1687 21.3742 14.61 21.375 15.125C21.3758 15.64 21.5596 16.0813 21.9262 16.4488C22.2946 16.8163 22.7358 17 23.25 17Z" fill="#D5B887"/>
</svg>
