<svg xmlns="http://www.w3.org/2000/svg" width="47" height="47" fill="none"><circle cx="23.5" cy="23.5" r="22" fill="#EEEDEB" stroke="#3B2E16" stroke-width="3"/><g clip-path="url(#a)"><path fill="#FEFEFE" d="M17.506 15.313c-.826 0-1.496.66-1.496 1.472v15.15h11.21v1.133c0 .644.419 1.19 1.002 1.39.242.053.412.083.491.083.826 0 1.493-.66 1.493-1.473V16.786c0-.814.668-1.474 1.494-1.474z"/><path fill="#000" d="M18.715 19.023v9.208a3.71 3.71 0 0 0 3.711 3.706H16.01V16.789c0-.814.671-1.477 1.495-1.477h4.921a3.71 3.71 0 0 0-3.71 3.711" opacity=".05"/><path fill="#E6E8E7" d="M30.206 18.67v-1.72c0-.814.667-1.473 1.493-1.473s1.493.66 1.493 1.473v1.158c0 .31-.252.563-.562.563zm-1.493 16.035H15.274c-.826 0-1.496-.66-1.496-1.474v-.57c0-.31.252-.562.563-.562h12.878v1.133c0 .813.668 1.473 1.494 1.473"/><path fill="#fff" d="M32.387 22.606h2.35v9.407h-2.35z"/><path fill="#000" d="M32.387 22.606h.971v9.407h-.971z" opacity=".05"/><path fill="#E6E8E7" d="M32.387 32.012h2.35v1.028h-2.35z"/><path fill="#fff" d="M32.387 33.04v.595a1.175 1.175 0 0 0 2.35 0v-.596zM34.738 22.606h-2.35l.59-1.08.09-.168a.562.562 0 0 1 .989-.002l.093.17z"/><path fill="#405D6B" d="M34.151 21.527h-1.173l.326-.603a.295.295 0 0 1 .518 0z"/><path fill="#fff" d="M11.262 11.75v10.28c0 .502.606.753.96.398l10.276-10.28a.562.562 0 0 0-.398-.96H11.824a.563.563 0 0 0-.562.562m2.185 1.623h4.735l-4.735 4.735z"/><path fill="#fff" d="M21.539 11.188 11.262 21.469v.561c0 .502.606.752.96.398l10.276-10.28a.562.562 0 0 0-.398-.96z" opacity=".05"/><mask id="b" fill="#fff"><path d="M32.63 18.857a.75.75 0 0 0 .75-.75v-1.159c0-.914-.753-1.658-1.678-1.66H19.625l3.006-3.008A.75.75 0 0 0 22.1 11H11.824a.75.75 0 0 0-.75.75v10.28a.75.75 0 0 0 1.28.53l3.467-3.467V31.91h-1.48a.75.75 0 0 0-.75.75v.57c0 .916.755 1.66 1.683 1.66h13.438c.927 0 1.681-.744 1.681-1.66V18.857zm.374-1.909v1.159a.375.375 0 0 1-.375.375h-2.236v-1.534c0-.709.586-1.285 1.306-1.285s1.305.576 1.305 1.285M12.09 22.296a.375.375 0 0 1-.64-.265v-.537h.663a.187.187 0 1 0 0-.375h-.664v-.965h.664a.187.187 0 1 0 0-.375h-.664v-.965h.664a.187.187 0 1 0 0-.375h-.664v-.964h.664a.188.188 0 0 0 0-.375h-.664v-.965h.664a.188.188 0 0 0 0-.375h-.664v-.964h.664a.188.188 0 0 0 0-.375h-.664v-.965h.664a.188.188 0 0 0 0-.375h-.664V11.75c0-.207.168-.375.375-.375h.898v.663a.187.187 0 0 0 .375 0v-.663h.965v.663a.187.187 0 1 0 .375 0v-.663h.964v.663a.187.187 0 0 0 .375 0v-.663h.965v.663a.187.187 0 0 0 .375 0v-.663h.965v.663a.187.187 0 0 0 .375 0v-.663h.964v.663a.187.187 0 0 0 .375 0v-.663h.965v.663a.187.187 0 0 0 .375 0v-.663h.965c.336 0 .502.403.266.64zm3.184 12.22a1.3 1.3 0 0 1-1.308-1.286v-.57c0-.206.168-.375.375-.375h12.316c.206 0 .375.169.375.375v.57c0 .518.24.981.618 1.286zm14.744-1.286c0 .706-.586 1.297-1.328 1.285-.832-.061-1.283-.665-1.283-1.285v-.57a.75.75 0 0 0-.75-.75h-10.46V18.717l3.053-3.055h11.386c-.365.294-.617.771-.618 1.283V33.23"/></mask><path fill="#FFF9F9" stroke="#000" stroke-width="2" d="M32.63 18.857a.75.75 0 0 0 .75-.75v-1.159c0-.914-.753-1.658-1.678-1.66H19.625l3.006-3.008A.75.75 0 0 0 22.1 11H11.824a.75.75 0 0 0-.75.75v10.28a.75.75 0 0 0 1.28.53l3.467-3.467V31.91h-1.48a.75.75 0 0 0-.75.75v.57c0 .916.755 1.66 1.683 1.66h13.438c.927 0 1.681-.744 1.681-1.66V18.857zm.374-1.909v1.159a.375.375 0 0 1-.375.375h-2.236v-1.534c0-.709.586-1.285 1.306-1.285s1.305.576 1.305 1.285ZM12.09 22.296a.375.375 0 0 1-.64-.265v-.537h.663a.187.187 0 1 0 0-.375h-.664v-.965h.664a.187.187 0 1 0 0-.375h-.664v-.965h.664a.187.187 0 1 0 0-.375h-.664v-.964h.664a.188.188 0 0 0 0-.375h-.664v-.965h.664a.188.188 0 0 0 0-.375h-.664v-.964h.664a.188.188 0 0 0 0-.375h-.664v-.965h.664a.188.188 0 0 0 0-.375h-.664V11.75c0-.207.168-.375.375-.375h.898v.663a.187.187 0 0 0 .375 0v-.663h.965v.663a.187.187 0 1 0 .375 0v-.663h.964v.663a.187.187 0 0 0 .375 0v-.663h.965v.663a.187.187 0 0 0 .375 0v-.663h.965v.663a.187.187 0 0 0 .375 0v-.663h.964v.663a.187.187 0 0 0 .375 0v-.663h.965v.663a.187.187 0 0 0 .375 0v-.663h.965c.336 0 .502.403.266.64zm3.184 12.22a1.3 1.3 0 0 1-1.308-1.286v-.57c0-.206.168-.375.375-.375h12.316c.206 0 .375.169.375.375v.57c0 .518.24.981.618 1.286zm14.744-1.286c0 .706-.586 1.297-1.328 1.285-.832-.061-1.283-.665-1.283-1.285v-.57a.75.75 0 0 0-.75-.75h-10.46V18.717l3.053-3.055h11.386c-.365.294-.617.771-.618 1.283V33.23Z" mask="url(#b)"/><path fill="#000" d="M26.85 17.667h-7.485a1 1 0 0 0-.997.996v1.229a.187.187 0 0 0 .375 0v-1.229c0-.343.28-.621.622-.621h3.555v.798a.187.187 0 1 0 .375 0v-.798h3.555c.343 0 .622.278.622.621v4.688h-4.177V20.09a.188.188 0 1 0-.375 0v3.262h-4.177v-1.258a.188.188 0 0 0-.374 0v6.814c0 .55.447.997.996.997h7.485c.55 0 .997-.447.997-.997v-.8a.19.19 0 0 0-.068-.145l-1.68-1.401a.188.188 0 1 0-.24.288l1.613 1.345v.713a.62.62 0 0 1-.622.622h-4.954v-.831a.188.188 0 0 0-.375 0v.83h-2.156a.62.62 0 0 1-.621-.62v-2.98h.955a.187.187 0 1 0 0-.375h-.955v-1.827h2.777v1.827h-.762a.187.187 0 1 0 0 .375h.762v1.52a.188.188 0 0 0 .375 0v-3.722h5.576v2.31a.188.188 0 0 0 .375 0v-7.373a1 1 0 0 0-.997-.996m8.053 4.848-.917-1.686a.482.482 0 0 0-.847 0c-.958 1.765-.912 1.673-.926 1.71-.013.035-.011.046-.013.065v11.031c0 .752.611 1.363 1.363 1.363.751 0 1.363-.611 1.363-1.363v-11.03a.3.3 0 0 0-.023-.09m-1.817-.803h.953l.384.705h-1.72zm1.465 1.08v9.032h-1.976v-9.032zm-1.976 10.06v-.653h1.976v.653zm1.081-11.844.18.33h-.547l.18-.33a.107.107 0 0 1 .188 0m-.093 13.615a.99.99 0 0 1-.988-.988v-.407h1.976v.407a.99.99 0 0 1-.988.988m-15.38-21.44h-4.736a.187.187 0 0 0-.187.188v4.735a.188.188 0 0 0 .32.132l4.735-4.734a.187.187 0 0 0-.133-.32m-4.548 4.47V13.56h4.095z"/></g><defs><clipPath id="a"><path fill="#fff" d="M11 11h24v24H11z"/></clipPath></defs></svg>