<svg width="129" height="66" viewBox="0 0 129 66" fill="none" xmlns="http://www.w3.org/2000/svg">
<path d="M-0.00012207 11.1774L4.7902 8.51611V55.8871L-0.00012207 52.6935V11.1774Z" fill="#D5B887"/>
<path d="M34.0645 26.3976L38.3225 24.4839V58.5484L34.0645 56.2519V26.3976Z" fill="#D5B887"/>
<path d="M20.2257 0L15.4354 2.12903V62.2742L20.2257 66V0Z" fill="#D5B887"/>
<path d="M46.928 42V40.92C47.408 40.92 47.776 40.792 48.032 40.536C48.288 40.28 48.504 39.936 48.68 39.504C48.856 39.056 49.048 38.56 49.256 38.016L54.104 24.744H55.064L60.32 38.208C60.448 38.512 60.592 38.928 60.752 39.456C60.912 39.968 60.984 40.408 60.968 40.776C61.24 40.744 61.504 40.728 61.76 40.728C62.032 40.712 62.288 40.696 62.528 40.68V42H56.696V40.944C57.256 40.928 57.624 40.808 57.8 40.584C57.992 40.344 58.064 40.056 58.016 39.72C57.984 39.384 57.904 39.048 57.776 38.712L57.056 36.768L51.176 36.912L50.48 39C50.384 39.32 50.28 39.624 50.168 39.912C50.056 40.2 49.944 40.48 49.832 40.752C50.12 40.72 50.424 40.704 50.744 40.704C51.08 40.688 51.376 40.672 51.632 40.656V42H46.928ZM51.608 35.616H56.648L55.136 31.56C54.944 31.032 54.76 30.512 54.584 30C54.408 29.472 54.248 28.968 54.104 28.488H54.08C53.952 28.888 53.808 29.328 53.648 29.808C53.488 30.288 53.304 30.808 53.096 31.368L51.608 35.616ZM74.8513 30.384C74.8353 29.472 74.7313 28.712 74.5393 28.104C74.3473 27.496 74.0273 27.04 73.5793 26.736C73.1473 26.432 72.5473 26.288 71.7793 26.304H70.0513L70.0273 38.784C70.0273 39.216 70.0193 39.608 70.0033 39.96C70.0033 40.296 69.9873 40.568 69.9553 40.776C70.2593 40.744 70.5873 40.728 70.9393 40.728C71.3073 40.712 71.6353 40.696 71.9233 40.68V42H65.8273V40.944C66.3553 40.912 66.7313 40.8 66.9553 40.608C67.1793 40.416 67.3233 40.128 67.3873 39.744C67.4513 39.344 67.4833 38.856 67.4833 38.28V26.328L65.4673 26.352C64.4913 26.352 63.7793 26.68 63.3313 27.336C62.8833 27.992 62.6593 29.008 62.6593 30.384H61.5313L61.6753 25.2H75.8353L75.9793 30.384H74.8513ZM82.7131 42.216L78.4411 29.376C78.2011 28.656 78.0091 28.072 77.8651 27.624C77.7371 27.176 77.6491 26.792 77.6011 26.472C77.3451 26.488 77.1051 26.496 76.8811 26.496C76.6571 26.496 76.4331 26.504 76.2091 26.52V25.2H82.4491V26.256C81.6331 26.288 81.1131 26.464 80.8891 26.784C80.6811 27.104 80.6971 27.712 80.9371 28.608C81.2091 29.616 81.4891 30.552 81.7771 31.416C82.0651 32.28 82.3531 33.192 82.6411 34.152C82.8331 34.808 83.0251 35.424 83.2171 36C83.4251 36.56 83.6331 37.216 83.8411 37.968H83.8651C83.9451 37.712 84.0331 37.408 84.1291 37.056C84.2411 36.704 84.3531 36.344 84.4651 35.976C84.5771 35.592 84.6811 35.248 84.7771 34.944C84.8731 34.624 84.9451 34.384 84.9931 34.224C85.3771 33.008 85.7531 31.816 86.1211 30.648C86.5051 29.48 86.8491 28.424 87.1531 27.48C87.4571 26.536 87.6891 25.768 87.8491 25.176H89.0971C89.2571 25.768 89.4651 26.464 89.7211 27.264C89.9931 28.048 90.2651 28.864 90.5371 29.712C90.8091 30.544 91.0731 31.352 91.3291 32.136C91.5851 32.904 91.8011 33.576 91.9771 34.152C92.1851 34.808 92.3931 35.472 92.6011 36.144C92.8251 36.8 93.0251 37.48 93.2011 38.184H93.2491C93.3931 37.704 93.5451 37.2 93.7051 36.672C93.8811 36.128 94.0491 35.576 94.2091 35.016C94.5291 34.088 94.7931 33.288 95.0011 32.616C95.2251 31.944 95.4091 31.36 95.5531 30.864C95.6971 30.368 95.8251 29.92 95.9371 29.52C96.0651 29.12 96.1931 28.728 96.3211 28.344C96.4171 28.04 96.5291 27.72 96.6571 27.384C96.7851 27.032 96.9451 26.72 97.1371 26.448C96.8331 26.464 96.5051 26.48 96.1531 26.496C95.8171 26.496 95.5131 26.504 95.2411 26.52V25.2H100.281V26.256C99.8011 26.304 99.4011 26.416 99.0811 26.592C98.7771 26.768 98.5051 27.08 98.2651 27.528C98.0251 27.96 97.7531 28.608 97.4491 29.472C96.7451 31.632 96.0491 33.768 95.3611 35.88C94.6891 37.992 93.9931 40.104 93.2731 42.216H92.0731L88.7131 32.4C88.5371 31.92 88.3771 31.448 88.2331 30.984C88.1051 30.504 87.9771 30.04 87.8491 29.592C87.7371 30.04 87.6171 30.488 87.4891 30.936C87.3611 31.368 87.2251 31.808 87.0811 32.256L83.8891 42.216H82.7131ZM98.2224 42V40.92C98.7024 40.92 99.0704 40.792 99.3264 40.536C99.5824 40.28 99.7984 39.936 99.9744 39.504C100.15 39.056 100.342 38.56 100.55 38.016L105.398 24.744H106.358L111.614 38.208C111.742 38.512 111.886 38.928 112.046 39.456C112.206 39.968 112.278 40.408 112.262 40.776C112.534 40.744 112.798 40.728 113.054 40.728C113.326 40.712 113.582 40.696 113.822 40.68V42H107.99V40.944C108.55 40.928 108.918 40.808 109.094 40.584C109.286 40.344 109.358 40.056 109.31 39.72C109.278 39.384 109.198 39.048 109.07 38.712L108.35 36.768L102.47 36.912L101.774 39C101.678 39.32 101.574 39.624 101.462 39.912C101.35 40.2 101.238 40.48 101.126 40.752C101.414 40.72 101.718 40.704 102.038 40.704C102.374 40.688 102.67 40.672 102.926 40.656V42H98.2224ZM102.902 35.616H107.942L106.43 31.56C106.238 31.032 106.054 30.512 105.878 30C105.702 29.472 105.542 28.968 105.398 28.488H105.374C105.246 28.888 105.102 29.328 104.942 29.808C104.782 30.288 104.598 30.808 104.39 31.368L102.902 35.616ZM114.438 42V40.944C114.966 40.912 115.342 40.8 115.566 40.608C115.806 40.416 115.958 40.128 116.022 39.744C116.086 39.36 116.118 38.872 116.118 38.28V28.296C116.118 27.944 116.126 27.608 116.142 27.288C116.158 26.952 116.174 26.664 116.19 26.424C115.918 26.44 115.622 26.456 115.302 26.472C114.982 26.488 114.694 26.504 114.438 26.52V25.2C115.414 25.184 116.398 25.176 117.39 25.176C118.382 25.16 119.382 25.16 120.39 25.176C121.894 25.176 123.134 25.352 124.11 25.704C125.086 26.04 125.814 26.544 126.294 27.216C126.79 27.888 127.03 28.736 127.014 29.76C127.03 30.4 126.902 31.04 126.63 31.68C126.358 32.304 125.902 32.864 125.262 33.36C124.622 33.856 123.742 34.232 122.622 34.488C122.942 34.68 123.23 34.944 123.486 35.28C123.742 35.616 124.006 35.992 124.278 36.408L125.742 38.664C126.046 39.144 126.326 39.552 126.582 39.888C126.838 40.224 127.126 40.488 127.446 40.68C127.766 40.856 128.15 40.944 128.598 40.944V42H125.262C124.846 41.648 124.486 41.272 124.182 40.872C123.894 40.456 123.582 39.992 123.246 39.48L121.59 36.792C121.382 36.472 121.158 36.128 120.918 35.76C120.694 35.392 120.446 35.08 120.174 34.824C119.918 34.824 119.662 34.824 119.406 34.824C119.166 34.824 118.918 34.824 118.662 34.824V38.784C118.662 39.216 118.654 39.608 118.638 39.96C118.638 40.296 118.622 40.568 118.59 40.776C118.782 40.76 118.982 40.752 119.19 40.752C119.414 40.736 119.63 40.72 119.838 40.704C120.062 40.688 120.254 40.68 120.414 40.68V42H114.438ZM120.054 33.648C120.934 33.632 121.686 33.496 122.31 33.24C122.934 32.968 123.414 32.56 123.75 32.016C124.086 31.456 124.254 30.736 124.254 29.856C124.254 29.2 124.158 28.648 123.966 28.2C123.774 27.752 123.502 27.392 123.15 27.12C122.798 26.832 122.374 26.632 121.878 26.52C121.398 26.392 120.878 26.328 120.318 26.328C119.806 26.328 119.43 26.424 119.19 26.616C118.966 26.808 118.822 27.088 118.758 27.456C118.694 27.824 118.662 28.296 118.662 28.872V33.576C118.902 33.592 119.126 33.616 119.334 33.648C119.558 33.664 119.798 33.664 120.054 33.648Z" fill="#D5B887"/>
<path d="M49.364 52.407C49.5553 52.407 49.8587 52.3977 50.274 52.379C50.694 52.3603 51.0743 52.351 51.415 52.351C52.1383 52.351 52.654 52.4933 52.962 52.778C53.27 53.058 53.424 53.45 53.424 53.954C53.424 54.402 53.2233 54.7777 52.822 55.081C52.4253 55.3843 51.9517 55.536 51.401 55.536C51.1163 55.536 50.876 55.522 50.68 55.494V57.692L51.317 57.762C51.3357 57.832 51.3357 57.9183 51.317 58.021C51.023 58.007 50.6917 58 50.323 58C50.0477 58 49.714 58.0047 49.322 58.014C49.294 57.93 49.294 57.846 49.322 57.762L49.903 57.678C49.9217 57.5007 49.931 57.2277 49.931 56.859V52.736L49.364 52.666C49.3453 52.596 49.3453 52.5097 49.364 52.407ZM50.68 53.569V55.207C50.8247 55.2257 51.0347 55.235 51.31 55.235C51.5527 55.235 51.7603 55.1953 51.933 55.116C52.1103 55.032 52.2433 54.9223 52.332 54.787C52.4207 54.647 52.4837 54.507 52.521 54.367C52.5583 54.227 52.577 54.0777 52.577 53.919C52.577 53.513 52.4743 53.2003 52.269 52.981C52.0637 52.757 51.7207 52.645 51.24 52.645C51.0673 52.645 50.8947 52.6613 50.722 52.694C50.694 52.96 50.68 53.2517 50.68 53.569ZM55.7489 54.262L55.7349 54.983C55.8516 54.7683 56.0126 54.5723 56.2179 54.395C56.4279 54.213 56.6263 54.122 56.8129 54.122C56.9576 54.122 57.0859 54.1383 57.1979 54.171C57.2353 54.2317 57.2539 54.311 57.2539 54.409C57.2539 54.563 57.2213 54.717 57.1559 54.871C56.9879 54.8243 56.8269 54.801 56.6729 54.801C56.2903 54.801 55.9753 54.9877 55.7279 55.361L55.7139 56.586V57.643L56.4909 57.748C56.5096 57.8227 56.5096 57.916 56.4909 58.028C56.1969 58.014 55.8609 58.007 55.4829 58.007C55.1983 58.007 54.8599 58.0117 54.4679 58.021C54.4399 57.9323 54.4399 57.8413 54.4679 57.748L55.0209 57.671C55.0396 57.4143 55.0489 57.118 55.0489 56.782V54.864C55.0489 54.7707 55.0419 54.6843 55.0279 54.605L54.4749 54.535C54.4563 54.465 54.4563 54.3763 54.4749 54.269C54.7969 54.2457 55.1983 54.1967 55.6789 54.122C55.7209 54.1687 55.7443 54.2153 55.7489 54.262ZM58.2036 56.138C58.2036 55.858 58.2432 55.5967 58.3226 55.354C58.4066 55.1067 58.5256 54.892 58.6796 54.71C58.8336 54.528 59.0179 54.3857 59.2326 54.283C59.4519 54.1757 59.6969 54.122 59.9676 54.122C60.2336 54.122 60.4762 54.1757 60.6956 54.283C60.9149 54.3857 61.1016 54.528 61.2556 54.71C61.4142 54.892 61.5356 55.1067 61.6196 55.354C61.7036 55.5967 61.7456 55.858 61.7456 56.138C61.7456 56.4273 61.7012 56.6933 61.6126 56.936C61.5286 57.1787 61.4072 57.391 61.2486 57.573C61.0946 57.7503 60.9079 57.8903 60.6886 57.993C60.4692 58.091 60.2289 58.14 59.9676 58.14C59.6922 58.14 59.4449 58.091 59.2256 57.993C59.0109 57.895 58.8266 57.7573 58.6726 57.58C58.5232 57.4027 58.4066 57.1927 58.3226 56.95C58.2432 56.7027 58.2036 56.432 58.2036 56.138ZM59.2256 54.85C59.0249 55.1347 58.9246 55.564 58.9246 56.138C58.9246 56.4227 58.9502 56.6723 59.0016 56.887C59.0576 57.1017 59.1322 57.2813 59.2256 57.426C59.3189 57.566 59.4286 57.671 59.5546 57.741C59.6806 57.811 59.8182 57.846 59.9676 57.846C60.1122 57.846 60.2499 57.811 60.3806 57.741C60.5112 57.671 60.6232 57.566 60.7166 57.426C60.8099 57.2813 60.8846 57.1017 60.9406 56.887C60.9966 56.6723 61.0246 56.4227 61.0246 56.138C61.0246 55.8533 60.9966 55.6037 60.9406 55.389C60.8846 55.1697 60.8076 54.99 60.7096 54.85C60.6162 54.7053 60.5042 54.598 60.3736 54.528C60.2476 54.4533 60.1122 54.416 59.9676 54.416C59.6782 54.416 59.4309 54.5607 59.2256 54.85ZM63.4032 58.301V55.291C63.4032 54.983 63.3962 54.7543 63.3822 54.605L62.7592 54.535C62.7405 54.465 62.7405 54.3763 62.7592 54.269C63.1698 54.241 63.5945 54.192 64.0332 54.122C64.0752 54.1687 64.0985 54.2153 64.1032 54.262C64.0798 54.3833 64.0682 54.7613 64.0682 55.396V57.93C64.0682 58.308 64.0332 58.6487 63.9632 58.952C63.8978 59.2553 63.7788 59.5097 63.6062 59.715C63.4382 59.925 63.2282 60.03 62.9762 60.03C62.6962 60.03 62.4978 59.988 62.3812 59.904C62.2598 59.82 62.1992 59.687 62.1992 59.505C62.3112 59.3463 62.4698 59.267 62.6752 59.267C62.7405 59.267 62.8082 59.274 62.8782 59.288C62.9295 59.6193 63.0018 59.785 63.0952 59.785C63.2072 59.785 63.2865 59.673 63.3332 59.449C63.3798 59.225 63.4032 58.8423 63.4032 58.301ZM63.0462 52.897C63.0368 52.8737 63.0322 52.8503 63.0322 52.827C63.0322 52.799 63.0322 52.7733 63.0322 52.75C63.0322 52.624 63.0835 52.5237 63.1862 52.449C63.2935 52.3697 63.4242 52.33 63.5782 52.33C63.7228 52.33 63.8395 52.3743 63.9282 52.463C64.0215 52.547 64.0682 52.6637 64.0682 52.813C64.0682 52.9343 64.0145 53.0323 63.9072 53.107C63.8045 53.1817 63.6715 53.219 63.5082 53.219C63.3962 53.219 63.2958 53.191 63.2072 53.135C63.1232 53.079 63.0695 52.9997 63.0462 52.897ZM68.4804 56.026H66.2824C66.2404 57.216 66.5974 57.811 67.3534 57.811C67.6754 57.811 68.0044 57.6687 68.3404 57.384C68.4104 57.426 68.4641 57.4983 68.5014 57.601C68.1794 57.9603 67.7711 58.14 67.2764 58.14C66.1377 58.14 65.5684 57.4703 65.5684 56.131C65.5684 55.4963 65.7364 55.004 66.0724 54.654C66.4084 54.2993 66.8004 54.122 67.2484 54.122C67.7384 54.122 68.0907 54.2923 68.3054 54.633C68.5201 54.9737 68.6274 55.417 68.6274 55.963C68.5807 56.0003 68.5317 56.0213 68.4804 56.026ZM67.2344 54.402C66.9917 54.402 66.7841 54.528 66.6114 54.78C66.4434 55.032 66.3407 55.354 66.3034 55.746H67.1714C67.5167 55.746 67.7641 55.725 67.9134 55.683C67.9134 55.3003 67.8551 54.9923 67.7384 54.759C67.6217 54.521 67.4537 54.402 67.2344 54.402ZM72.9071 55.158C72.8091 55.2607 72.5781 55.3097 72.2141 55.305C72.1395 54.717 71.9271 54.423 71.5771 54.423C71.3018 54.423 71.0685 54.5817 70.8771 54.899C70.6858 55.2163 70.5901 55.634 70.5901 56.152C70.5901 56.684 70.6741 57.0947 70.8421 57.384C71.0101 57.6687 71.2621 57.811 71.5981 57.811C71.9528 57.811 72.3005 57.6663 72.6411 57.377C72.7111 57.419 72.7648 57.4913 72.8021 57.594C72.4615 57.958 72.0345 58.14 71.5211 58.14C71.0311 58.14 70.6298 57.972 70.3171 57.636C70.0045 57.2953 69.8481 56.796 69.8481 56.138C69.8481 55.508 70.0208 55.0157 70.3661 54.661C70.7161 54.3017 71.1151 54.122 71.5631 54.122C71.9178 54.122 72.2305 54.2107 72.5011 54.388C72.7718 54.5653 72.9071 54.822 72.9071 55.158ZM75.1032 53.422V54.423H76.0902C76.0995 54.479 76.1042 54.521 76.1042 54.549C76.1042 54.591 76.0995 54.64 76.0902 54.696L75.1032 54.843V56.768C75.1032 57.1133 75.1335 57.3583 75.1942 57.503C75.2595 57.643 75.3598 57.713 75.4952 57.713C75.6165 57.713 75.8055 57.664 76.0622 57.566C76.1088 57.608 76.1415 57.6873 76.1602 57.804C76.0202 57.888 75.9128 57.951 75.8382 57.993C75.7682 58.0303 75.6772 58.063 75.5652 58.091C75.4578 58.1237 75.3435 58.14 75.2222 58.14C74.9888 58.14 74.7975 58.0513 74.6482 57.874C74.5035 57.692 74.4312 57.4167 74.4312 57.048V54.759L73.9412 54.696C73.9318 54.6493 73.9272 54.6097 73.9272 54.577C73.9272 54.5397 73.9318 54.4883 73.9412 54.423C74.0718 54.3997 74.1838 54.36 74.2772 54.304C74.3752 54.2433 74.4568 54.1617 74.5222 54.059C74.5875 53.9517 74.6365 53.8583 74.6692 53.779C74.7065 53.695 74.7508 53.576 74.8022 53.422C74.8442 53.408 74.8955 53.401 74.9562 53.401C75.0122 53.401 75.0612 53.408 75.1032 53.422ZM84.9069 56.859V52.834L82.7929 58.21H82.6109L80.5739 53.009V56.859C80.5739 57.2277 80.5833 57.5007 80.6019 57.678L81.2529 57.762C81.2809 57.846 81.2809 57.93 81.2529 58.014C80.8516 58.0047 80.5669 58 80.3989 58C80.1189 58 79.8366 58.007 79.5519 58.021C79.5333 57.9183 79.5333 57.832 79.5519 57.762L80.1889 57.692V53.569C80.1889 53.2003 80.1796 52.9273 80.1609 52.75L79.5799 52.666C79.5519 52.5867 79.5519 52.5073 79.5799 52.428H81.1199L82.8769 57.034L84.6759 52.428C84.7833 52.4327 84.9466 52.435 85.1659 52.435C85.2126 52.435 85.5789 52.428 86.2649 52.414C86.2929 52.498 86.2929 52.582 86.2649 52.666L85.6839 52.75C85.6653 52.9273 85.6559 53.2003 85.6559 53.569V57.692L86.2229 57.762C86.2416 57.832 86.2416 57.9183 86.2229 58.021C85.9289 58.007 85.6093 58 85.2639 58C85.0119 58 84.6899 58.0047 84.2979 58.014C84.2699 57.8973 84.2699 57.8133 84.2979 57.762L84.8789 57.678C84.8976 57.5007 84.9069 57.2277 84.9069 56.859ZM88.1267 57.069C88.1267 57.3117 88.1711 57.4843 88.2597 57.587C88.3484 57.685 88.4884 57.734 88.6797 57.734C88.8197 57.734 88.9737 57.692 89.1417 57.608C89.3144 57.5193 89.4731 57.3933 89.6177 57.23V56.138C89.1371 56.166 88.7684 56.2523 88.5117 56.397C88.2551 56.537 88.1267 56.761 88.1267 57.069ZM89.6177 55.886V55.529C89.6177 55.1323 89.5711 54.8453 89.4777 54.668C89.3891 54.486 89.2397 54.395 89.0297 54.395C88.8151 54.395 88.6424 54.465 88.5117 54.605C88.3811 54.7403 88.2924 54.9737 88.2457 55.305C88.0964 55.3377 87.9867 55.354 87.9167 55.354C87.7347 55.354 87.6274 55.2887 87.5947 55.158C87.5947 54.8407 87.7324 54.5887 88.0077 54.402C88.2831 54.2153 88.6261 54.122 89.0367 54.122C89.4894 54.122 89.8091 54.2153 89.9957 54.402C90.1871 54.584 90.2827 54.913 90.2827 55.389V57.363C90.2827 57.4797 90.2897 57.58 90.3037 57.664L90.8567 57.734C90.8754 57.804 90.8754 57.8927 90.8567 58C90.5254 58.014 90.1731 58.0467 89.7997 58.098C89.7624 58.0607 89.7391 58.014 89.7297 57.958L89.6947 57.475C89.3074 57.9183 88.8757 58.14 88.3997 58.14C88.1057 58.14 87.8747 58.056 87.7067 57.888C87.5434 57.72 87.4617 57.4937 87.4617 57.209C87.4617 56.7797 87.6554 56.4553 88.0427 56.236C88.4347 56.0167 88.9597 55.9 89.6177 55.886ZM94.673 55.501C94.673 55.1417 94.624 54.8897 94.526 54.745C94.4326 54.6003 94.274 54.528 94.05 54.528C93.7046 54.528 93.357 54.787 93.007 55.305V57.643L93.574 57.748C93.5926 57.8227 93.5926 57.916 93.574 58.028C93.28 58.014 92.979 58.007 92.671 58.007C92.4563 58.007 92.153 58.0117 91.761 58.021C91.733 57.9323 91.733 57.8413 91.761 57.748L92.314 57.671C92.3326 57.4143 92.342 57.118 92.342 56.782V54.864C92.342 54.7707 92.335 54.6843 92.321 54.605L91.768 54.535C91.7493 54.465 91.7493 54.3763 91.768 54.269C92.09 54.2457 92.4913 54.1967 92.972 54.122C93.014 54.1687 93.0373 54.2153 93.042 54.262C93.0186 54.3833 93.007 54.591 93.007 54.885C93.3756 54.3763 93.791 54.122 94.253 54.122C94.9763 54.122 95.338 54.465 95.338 55.151V57.643L95.905 57.748C95.9236 57.8227 95.9236 57.916 95.905 58.028C95.611 58.014 95.31 58.007 95.002 58.007C94.7873 58.007 94.484 58.0117 94.092 58.021C94.064 57.9323 94.064 57.8413 94.092 57.748L94.645 57.671C94.6636 57.4143 94.673 57.118 94.673 56.782V55.501ZM97.583 57.069C97.583 57.3117 97.6273 57.4843 97.716 57.587C97.8047 57.685 97.9447 57.734 98.136 57.734C98.276 57.734 98.43 57.692 98.598 57.608C98.7707 57.5193 98.9293 57.3933 99.074 57.23V56.138C98.5933 56.166 98.2247 56.2523 97.968 56.397C97.7113 56.537 97.583 56.761 97.583 57.069ZM99.074 55.886V55.529C99.074 55.1323 99.0273 54.8453 98.934 54.668C98.8453 54.486 98.696 54.395 98.486 54.395C98.2713 54.395 98.0987 54.465 97.968 54.605C97.8373 54.7403 97.7487 54.9737 97.702 55.305C97.5527 55.3377 97.443 55.354 97.373 55.354C97.191 55.354 97.0837 55.2887 97.051 55.158C97.051 54.8407 97.1887 54.5887 97.464 54.402C97.7393 54.2153 98.0823 54.122 98.493 54.122C98.9457 54.122 99.2653 54.2153 99.452 54.402C99.6433 54.584 99.739 54.913 99.739 55.389V57.363C99.739 57.4797 99.746 57.58 99.76 57.664L100.313 57.734C100.332 57.804 100.332 57.8927 100.313 58C99.9817 58.014 99.6293 58.0467 99.256 58.098C99.2187 58.0607 99.1953 58.014 99.186 57.958L99.151 57.475C98.7637 57.9183 98.332 58.14 97.856 58.14C97.562 58.14 97.331 58.056 97.163 57.888C96.9997 57.72 96.918 57.4937 96.918 57.209C96.918 56.7797 97.1117 56.4553 97.499 56.236C97.891 56.0167 98.416 55.9 99.074 55.886ZM101.847 58.077C101.889 58.0957 101.924 58.1353 101.952 58.196C101.798 58.322 101.721 58.511 101.721 58.763C101.721 58.987 101.824 59.1667 102.029 59.302C102.235 59.4373 102.501 59.505 102.827 59.505C103.163 59.505 103.443 59.442 103.667 59.316C103.891 59.1947 104.003 59.022 104.003 58.798C104.003 58.5553 103.959 58.3757 103.87 58.259C103.782 58.147 103.604 58.0793 103.338 58.056L102.029 57.937C101.885 57.9183 101.763 57.8437 101.665 57.713C101.572 57.5777 101.525 57.447 101.525 57.321L101.994 56.544C101.78 56.4227 101.616 56.2617 101.504 56.061C101.397 55.8603 101.343 55.655 101.343 55.445C101.343 55.0483 101.49 54.7287 101.784 54.486C102.078 54.2433 102.417 54.122 102.799 54.122C103.168 54.122 103.492 54.22 103.772 54.416C103.796 53.7767 104.034 53.4453 104.486 53.422C104.608 53.45 104.668 53.5503 104.668 53.723C104.668 53.8163 104.659 53.919 104.64 54.031C104.458 54.045 104.309 54.1057 104.192 54.213C104.076 54.3157 103.992 54.4347 103.94 54.57C104.174 54.8033 104.29 55.095 104.29 55.445C104.29 55.8137 104.141 56.1217 103.842 56.369C103.544 56.6117 103.196 56.733 102.799 56.733C102.589 56.733 102.4 56.705 102.232 56.649L101.994 57.272L103.737 57.447C104.008 57.4797 104.213 57.58 104.353 57.748C104.498 57.9113 104.57 58.126 104.57 58.392C104.57 58.8587 104.402 59.2157 104.066 59.463C103.73 59.715 103.275 59.841 102.701 59.841C102.225 59.841 101.854 59.7547 101.588 59.582C101.322 59.4093 101.189 59.1783 101.189 58.889C101.189 58.693 101.252 58.518 101.378 58.364C101.504 58.2147 101.661 58.119 101.847 58.077ZM101.973 55.445C101.973 55.7157 102.048 55.9467 102.197 56.138C102.351 56.3293 102.554 56.425 102.806 56.425C103.054 56.425 103.257 56.3317 103.415 56.145C103.574 55.9537 103.653 55.7203 103.653 55.445C103.653 55.1463 103.574 54.899 103.415 54.703C103.261 54.5023 103.058 54.402 102.806 54.402C102.568 54.402 102.37 54.5023 102.211 54.703C102.053 54.9037 101.973 55.151 101.973 55.445ZM108.535 56.026H106.337C106.295 57.216 106.652 57.811 107.408 57.811C107.73 57.811 108.059 57.6687 108.395 57.384C108.465 57.426 108.519 57.4983 108.556 57.601C108.234 57.9603 107.826 58.14 107.331 58.14C106.192 58.14 105.623 57.4703 105.623 56.131C105.623 55.4963 105.791 55.004 106.127 54.654C106.463 54.2993 106.855 54.122 107.303 54.122C107.793 54.122 108.145 54.2923 108.36 54.633C108.575 54.9737 108.682 55.417 108.682 55.963C108.635 56.0003 108.586 56.0213 108.535 56.026ZM107.289 54.402C107.046 54.402 106.839 54.528 106.666 54.78C106.498 55.032 106.395 55.354 106.358 55.746H107.226C107.571 55.746 107.819 55.725 107.968 55.683C107.968 55.3003 107.91 54.9923 107.793 54.759C107.676 54.521 107.508 54.402 107.289 54.402ZM115.02 55.501C115.02 54.8523 114.812 54.528 114.397 54.528C114.042 54.528 113.706 54.773 113.389 55.263V57.643L113.956 57.748C113.975 57.8227 113.975 57.916 113.956 58.028C113.662 58.014 113.363 58.007 113.06 58.007C112.845 58.007 112.542 58.0117 112.15 58.021C112.122 57.9323 112.122 57.8413 112.15 57.748L112.703 57.671C112.722 57.4143 112.731 57.118 112.731 56.782V55.501C112.731 54.8523 112.523 54.528 112.108 54.528C111.898 54.528 111.714 54.5933 111.555 54.724C111.396 54.85 111.233 55.0483 111.065 55.319V57.643L111.632 57.748C111.651 57.8227 111.651 57.916 111.632 58.028C111.338 58.014 111.039 58.007 110.736 58.007C110.521 58.007 110.218 58.0117 109.826 58.021C109.798 57.9323 109.798 57.8413 109.826 57.748L110.379 57.671C110.398 57.4143 110.407 57.118 110.407 56.782V54.864C110.407 54.7707 110.4 54.6843 110.386 54.605L109.833 54.535C109.814 54.465 109.814 54.3763 109.833 54.269C110.146 54.2457 110.545 54.1967 111.03 54.122C111.072 54.1687 111.095 54.2153 111.1 54.262C111.077 54.3833 111.065 54.591 111.065 54.885C111.434 54.3763 111.849 54.122 112.311 54.122C112.554 54.122 112.775 54.185 112.976 54.311C113.177 54.4323 113.305 54.6213 113.361 54.878C113.734 54.374 114.147 54.122 114.6 54.122C114.885 54.122 115.134 54.206 115.349 54.374C115.568 54.542 115.678 54.801 115.678 55.151V57.643L116.245 57.748C116.264 57.8227 116.264 57.916 116.245 58.028C115.951 58.014 115.652 58.007 115.349 58.007C115.134 58.007 114.831 58.0117 114.439 58.021C114.411 57.9323 114.411 57.8413 114.439 57.748L114.992 57.671C115.011 57.4143 115.02 57.118 115.02 56.782V55.501ZM120.199 56.026H118.001C117.959 57.216 118.316 57.811 119.072 57.811C119.394 57.811 119.723 57.6687 120.059 57.384C120.129 57.426 120.183 57.4983 120.22 57.601C119.898 57.9603 119.49 58.14 118.995 58.14C117.857 58.14 117.287 57.4703 117.287 56.131C117.287 55.4963 117.455 55.004 117.791 54.654C118.127 54.2993 118.519 54.122 118.967 54.122C119.457 54.122 119.81 54.2923 120.024 54.633C120.239 54.9737 120.346 55.417 120.346 55.963C120.3 56.0003 120.251 56.0213 120.199 56.026ZM118.953 54.402C118.711 54.402 118.503 54.528 118.33 54.78C118.162 55.032 118.06 55.354 118.022 55.746H118.89C119.236 55.746 119.483 55.725 119.632 55.683C119.632 55.3003 119.574 54.9923 119.457 54.759C119.341 54.521 119.173 54.402 118.953 54.402ZM124.402 55.501C124.402 55.1417 124.353 54.8897 124.255 54.745C124.162 54.6003 124.003 54.528 123.779 54.528C123.434 54.528 123.086 54.787 122.736 55.305V57.643L123.303 57.748C123.322 57.8227 123.322 57.916 123.303 58.028C123.009 58.014 122.708 58.007 122.4 58.007C122.186 58.007 121.882 58.0117 121.49 58.021C121.462 57.9323 121.462 57.8413 121.49 57.748L122.043 57.671C122.062 57.4143 122.071 57.118 122.071 56.782V54.864C122.071 54.7707 122.064 54.6843 122.05 54.605L121.497 54.535C121.479 54.465 121.479 54.3763 121.497 54.269C121.819 54.2457 122.221 54.1967 122.701 54.122C122.743 54.1687 122.767 54.2153 122.771 54.262C122.748 54.3833 122.736 54.591 122.736 54.885C123.105 54.3763 123.52 54.122 123.982 54.122C124.706 54.122 125.067 54.465 125.067 55.151V57.643L125.634 57.748C125.653 57.8227 125.653 57.916 125.634 58.028C125.34 58.014 125.039 58.007 124.731 58.007C124.517 58.007 124.213 58.0117 123.821 58.021C123.793 57.9323 123.793 57.8413 123.821 57.748L124.374 57.671C124.393 57.4143 124.402 57.118 124.402 56.782V55.501ZM127.697 53.422V54.423H128.684C128.694 54.479 128.698 54.521 128.698 54.549C128.698 54.591 128.694 54.64 128.684 54.696L127.697 54.843V56.768C127.697 57.1133 127.728 57.3583 127.788 57.503C127.854 57.643 127.954 57.713 128.089 57.713C128.211 57.713 128.4 57.664 128.656 57.566C128.703 57.608 128.736 57.6873 128.754 57.804C128.614 57.888 128.507 57.951 128.432 57.993C128.362 58.0303 128.271 58.063 128.159 58.091C128.052 58.1237 127.938 58.14 127.816 58.14C127.583 58.14 127.392 58.0513 127.242 57.874C127.098 57.692 127.025 57.4167 127.025 57.048V54.759L126.535 54.696C126.526 54.6493 126.521 54.6097 126.521 54.577C126.521 54.5397 126.526 54.4883 126.535 54.423C126.666 54.3997 126.778 54.36 126.871 54.304C126.969 54.2433 127.051 54.1617 127.116 54.059C127.182 53.9517 127.231 53.8583 127.263 53.779C127.301 53.695 127.345 53.576 127.396 53.422C127.438 53.408 127.49 53.401 127.55 53.401C127.606 53.401 127.655 53.408 127.697 53.422Z" fill="#D5B887"/>
</svg>
