<svg width="194" height="178" viewBox="0 0 194 178" fill="none" xmlns="http://www.w3.org/2000/svg">
<path d="M62 20.7083L70.875 15.7777V103.542L62 97.6249V20.7083Z" fill="#D5B887"/>
<path d="M125.111 48.9067L133 45.3611V108.472L125.111 104.218V48.9067Z" fill="#D5B887"/>
<path d="M99.4722 0L90.5972 3.94444V115.375L99.4722 122.278V0Z" fill="#D5B887"/>
<path d="M55.928 150V148.92C56.408 148.92 56.776 148.792 57.032 148.536C57.288 148.28 57.504 147.936 57.68 147.504C57.856 147.056 58.048 146.56 58.256 146.016L63.104 132.744H64.064L69.32 146.208C69.448 146.512 69.592 146.928 69.752 147.456C69.912 147.968 69.984 148.408 69.968 148.776C70.24 148.744 70.504 148.728 70.76 148.728C71.032 148.712 71.288 148.696 71.528 148.68V150H65.696V148.944C66.256 148.928 66.624 148.808 66.8 148.584C66.992 148.344 67.064 148.056 67.016 147.72C66.984 147.384 66.904 147.048 66.776 146.712L66.056 144.768L60.176 144.912L59.48 147C59.384 147.32 59.28 147.624 59.168 147.912C59.056 148.2 58.944 148.48 58.832 148.752C59.12 148.72 59.424 148.704 59.744 148.704C60.08 148.688 60.376 148.672 60.632 148.656V150H55.928ZM60.608 143.616H65.648L64.136 139.56C63.944 139.032 63.76 138.512 63.584 138C63.408 137.472 63.248 136.968 63.104 136.488H63.08C62.952 136.888 62.808 137.328 62.648 137.808C62.488 138.288 62.304 138.808 62.096 139.368L60.608 143.616ZM83.8513 138.384C83.8353 137.472 83.7313 136.712 83.5393 136.104C83.3473 135.496 83.0273 135.04 82.5793 134.736C82.1473 134.432 81.5473 134.288 80.7793 134.304H79.0513L79.0273 146.784C79.0273 147.216 79.0193 147.608 79.0033 147.96C79.0033 148.296 78.9873 148.568 78.9553 148.776C79.2593 148.744 79.5873 148.728 79.9393 148.728C80.3073 148.712 80.6353 148.696 80.9233 148.68V150H74.8273V148.944C75.3553 148.912 75.7313 148.8 75.9553 148.608C76.1793 148.416 76.3233 148.128 76.3873 147.744C76.4513 147.344 76.4833 146.856 76.4833 146.28V134.328L74.4673 134.352C73.4913 134.352 72.7793 134.68 72.3313 135.336C71.8833 135.992 71.6593 137.008 71.6593 138.384H70.5313L70.6753 133.2H84.8353L84.9793 138.384H83.8513ZM91.7131 150.216L87.4411 137.376C87.2011 136.656 87.0091 136.072 86.8651 135.624C86.7371 135.176 86.6491 134.792 86.6011 134.472C86.3451 134.488 86.1051 134.496 85.8811 134.496C85.6571 134.496 85.4331 134.504 85.2091 134.52V133.2H91.4491V134.256C90.6331 134.288 90.1131 134.464 89.8891 134.784C89.6811 135.104 89.6971 135.712 89.9371 136.608C90.2091 137.616 90.4891 138.552 90.7771 139.416C91.0651 140.28 91.3531 141.192 91.6411 142.152C91.8331 142.808 92.0251 143.424 92.2171 144C92.4251 144.56 92.6331 145.216 92.8411 145.968H92.8651C92.9451 145.712 93.0331 145.408 93.1291 145.056C93.2411 144.704 93.3531 144.344 93.4651 143.976C93.5771 143.592 93.6811 143.248 93.7771 142.944C93.8731 142.624 93.9451 142.384 93.9931 142.224C94.3771 141.008 94.7531 139.816 95.1211 138.648C95.5051 137.48 95.8491 136.424 96.1531 135.48C96.4571 134.536 96.6891 133.768 96.8491 133.176H98.0971C98.2571 133.768 98.4651 134.464 98.7211 135.264C98.9931 136.048 99.2651 136.864 99.5371 137.712C99.8091 138.544 100.073 139.352 100.329 140.136C100.585 140.904 100.801 141.576 100.977 142.152C101.185 142.808 101.393 143.472 101.601 144.144C101.825 144.8 102.025 145.48 102.201 146.184H102.249C102.393 145.704 102.545 145.2 102.705 144.672C102.881 144.128 103.049 143.576 103.209 143.016C103.529 142.088 103.793 141.288 104.001 140.616C104.225 139.944 104.409 139.36 104.553 138.864C104.697 138.368 104.825 137.92 104.937 137.52C105.065 137.12 105.193 136.728 105.321 136.344C105.417 136.04 105.529 135.72 105.657 135.384C105.785 135.032 105.945 134.72 106.137 134.448C105.833 134.464 105.505 134.48 105.153 134.496C104.817 134.496 104.513 134.504 104.241 134.52V133.2H109.281V134.256C108.801 134.304 108.401 134.416 108.081 134.592C107.777 134.768 107.505 135.08 107.265 135.528C107.025 135.96 106.753 136.608 106.449 137.472C105.745 139.632 105.049 141.768 104.361 143.88C103.689 145.992 102.993 148.104 102.273 150.216H101.073L97.7131 140.4C97.5371 139.92 97.3771 139.448 97.2331 138.984C97.1051 138.504 96.9771 138.04 96.8491 137.592C96.7371 138.04 96.6171 138.488 96.4891 138.936C96.3611 139.368 96.2251 139.808 96.0811 140.256L92.8891 150.216H91.7131ZM107.222 150V148.92C107.702 148.92 108.07 148.792 108.326 148.536C108.582 148.28 108.798 147.936 108.974 147.504C109.15 147.056 109.342 146.56 109.55 146.016L114.398 132.744H115.358L120.614 146.208C120.742 146.512 120.886 146.928 121.046 147.456C121.206 147.968 121.278 148.408 121.262 148.776C121.534 148.744 121.798 148.728 122.054 148.728C122.326 148.712 122.582 148.696 122.822 148.68V150H116.99V148.944C117.55 148.928 117.918 148.808 118.094 148.584C118.286 148.344 118.358 148.056 118.31 147.72C118.278 147.384 118.198 147.048 118.07 146.712L117.35 144.768L111.47 144.912L110.774 147C110.678 147.32 110.574 147.624 110.462 147.912C110.35 148.2 110.238 148.48 110.126 148.752C110.414 148.72 110.718 148.704 111.038 148.704C111.374 148.688 111.67 148.672 111.926 148.656V150H107.222ZM111.902 143.616H116.942L115.43 139.56C115.238 139.032 115.054 138.512 114.878 138C114.702 137.472 114.542 136.968 114.398 136.488H114.374C114.246 136.888 114.102 137.328 113.942 137.808C113.782 138.288 113.598 138.808 113.39 139.368L111.902 143.616ZM123.438 150V148.944C123.966 148.912 124.342 148.8 124.566 148.608C124.806 148.416 124.958 148.128 125.022 147.744C125.086 147.36 125.118 146.872 125.118 146.28V136.296C125.118 135.944 125.126 135.608 125.142 135.288C125.158 134.952 125.174 134.664 125.19 134.424C124.918 134.44 124.622 134.456 124.302 134.472C123.982 134.488 123.694 134.504 123.438 134.52V133.2C124.414 133.184 125.398 133.176 126.39 133.176C127.382 133.16 128.382 133.16 129.39 133.176C130.894 133.176 132.134 133.352 133.11 133.704C134.086 134.04 134.814 134.544 135.294 135.216C135.79 135.888 136.03 136.736 136.014 137.76C136.03 138.4 135.902 139.04 135.63 139.68C135.358 140.304 134.902 140.864 134.262 141.36C133.622 141.856 132.742 142.232 131.622 142.488C131.942 142.68 132.23 142.944 132.486 143.28C132.742 143.616 133.006 143.992 133.278 144.408L134.742 146.664C135.046 147.144 135.326 147.552 135.582 147.888C135.838 148.224 136.126 148.488 136.446 148.68C136.766 148.856 137.15 148.944 137.598 148.944V150H134.262C133.846 149.648 133.486 149.272 133.182 148.872C132.894 148.456 132.582 147.992 132.246 147.48L130.59 144.792C130.382 144.472 130.158 144.128 129.918 143.76C129.694 143.392 129.446 143.08 129.174 142.824C128.918 142.824 128.662 142.824 128.406 142.824C128.166 142.824 127.918 142.824 127.662 142.824V146.784C127.662 147.216 127.654 147.608 127.638 147.96C127.638 148.296 127.622 148.568 127.59 148.776C127.782 148.76 127.982 148.752 128.19 148.752C128.414 148.736 128.63 148.72 128.838 148.704C129.062 148.688 129.254 148.68 129.414 148.68V150H123.438ZM129.054 141.648C129.934 141.632 130.686 141.496 131.31 141.24C131.934 140.968 132.414 140.56 132.75 140.016C133.086 139.456 133.254 138.736 133.254 137.856C133.254 137.2 133.158 136.648 132.966 136.2C132.774 135.752 132.502 135.392 132.15 135.12C131.798 134.832 131.374 134.632 130.878 134.52C130.398 134.392 129.878 134.328 129.318 134.328C128.806 134.328 128.43 134.424 128.19 134.616C127.966 134.808 127.822 135.088 127.758 135.456C127.694 135.824 127.662 136.296 127.662 136.872V141.576C127.902 141.592 128.126 141.616 128.334 141.648C128.558 141.664 128.798 141.664 129.054 141.648Z" fill="#D5B887"/>
<path d="M0.884 159.417C1.34867 159.417 2.08533 159.394 3.094 159.349C4.114 159.304 5.03767 159.281 5.865 159.281C7.62167 159.281 8.874 159.627 9.622 160.318C10.37 160.998 10.744 161.95 10.744 163.174C10.744 164.262 10.2567 165.174 9.282 165.911C8.31867 166.648 7.16833 167.016 5.831 167.016C5.13967 167.016 4.556 166.982 4.08 166.914V172.252L5.627 172.422C5.67233 172.592 5.67233 172.802 5.627 173.051C4.913 173.017 4.10833 173 3.213 173C2.54433 173 1.734 173.011 0.782 173.034C0.714 172.83 0.714 172.626 0.782 172.422L2.193 172.218C2.23833 171.787 2.261 171.124 2.261 170.229V160.216L0.884 160.046C0.838667 159.876 0.838667 159.666 0.884 159.417ZM4.08 162.239V166.217C4.43133 166.262 4.94133 166.285 5.61 166.285C6.19933 166.285 6.70367 166.189 7.123 165.996C7.55367 165.792 7.87667 165.526 8.092 165.197C8.30733 164.857 8.46033 164.517 8.551 164.177C8.64167 163.837 8.687 163.474 8.687 163.089C8.687 162.103 8.43767 161.344 7.939 160.811C7.44033 160.267 6.60733 159.995 5.44 159.995C5.02067 159.995 4.60133 160.035 4.182 160.114C4.114 160.76 4.08 161.468 4.08 162.239ZM16.3903 163.922L16.3563 165.673C16.6396 165.152 17.0306 164.676 17.5293 164.245C18.0393 163.803 18.5209 163.582 18.9743 163.582C19.3256 163.582 19.6373 163.622 19.9093 163.701C19.9999 163.848 20.0453 164.041 20.0453 164.279C20.0453 164.653 19.9659 165.027 19.8073 165.401C19.3993 165.288 19.0083 165.231 18.6343 165.231C17.7049 165.231 16.9399 165.684 16.3393 166.591L16.3053 169.566V172.133L18.1923 172.388C18.2376 172.569 18.2376 172.796 18.1923 173.068C17.4783 173.034 16.6623 173.017 15.7443 173.017C15.0529 173.017 14.2313 173.028 13.2793 173.051C13.2113 172.836 13.2113 172.615 13.2793 172.388L14.6223 172.201C14.6676 171.578 14.6903 170.858 14.6903 170.042V165.384C14.6903 165.157 14.6733 164.948 14.6393 164.755L13.2963 164.585C13.2509 164.415 13.2509 164.2 13.2963 163.939C14.0783 163.882 15.0529 163.763 16.2203 163.582C16.3223 163.695 16.3789 163.809 16.3903 163.922ZM22.3515 168.478C22.3515 167.798 22.4479 167.163 22.6405 166.574C22.8445 165.973 23.1335 165.452 23.5075 165.01C23.8815 164.568 24.3292 164.222 24.8505 163.973C25.3832 163.712 25.9782 163.582 26.6355 163.582C27.2815 163.582 27.8709 163.712 28.4035 163.973C28.9362 164.222 29.3895 164.568 29.7635 165.01C30.1489 165.452 30.4435 165.973 30.6475 166.574C30.8515 167.163 30.9535 167.798 30.9535 168.478C30.9535 169.181 30.8459 169.827 30.6305 170.416C30.4265 171.005 30.1319 171.521 29.7465 171.963C29.3725 172.394 28.9192 172.734 28.3865 172.983C27.8539 173.221 27.2702 173.34 26.6355 173.34C25.9669 173.34 25.3662 173.221 24.8335 172.983C24.3122 172.745 23.8645 172.411 23.4905 171.98C23.1279 171.549 22.8445 171.039 22.6405 170.45C22.4479 169.849 22.3515 169.192 22.3515 168.478ZM24.8335 165.35C24.3462 166.041 24.1025 167.084 24.1025 168.478C24.1025 169.169 24.1649 169.776 24.2895 170.297C24.4255 170.818 24.6069 171.255 24.8335 171.606C25.0602 171.946 25.3265 172.201 25.6325 172.371C25.9385 172.541 26.2729 172.626 26.6355 172.626C26.9869 172.626 27.3212 172.541 27.6385 172.371C27.9559 172.201 28.2279 171.946 28.4545 171.606C28.6812 171.255 28.8625 170.818 28.9985 170.297C29.1345 169.776 29.2025 169.169 29.2025 168.478C29.2025 167.787 29.1345 167.18 28.9985 166.659C28.8625 166.126 28.6755 165.69 28.4375 165.35C28.2109 164.999 27.9389 164.738 27.6215 164.568C27.3155 164.387 26.9869 164.296 26.6355 164.296C25.9329 164.296 25.3322 164.647 24.8335 165.35ZM34.9791 173.731V166.421C34.9791 165.673 34.9621 165.118 34.9281 164.755L33.4151 164.585C33.3698 164.415 33.3698 164.2 33.4151 163.939C34.4124 163.871 35.4438 163.752 36.5091 163.582C36.6111 163.695 36.6678 163.809 36.6791 163.922C36.6224 164.217 36.5941 165.135 36.5941 166.676V172.83C36.5941 173.748 36.5091 174.575 36.3391 175.312C36.1804 176.049 35.8914 176.666 35.4721 177.165C35.0641 177.675 34.5541 177.93 33.9421 177.93C33.2621 177.93 32.7804 177.828 32.4971 177.624C32.2024 177.42 32.0551 177.097 32.0551 176.655C32.3271 176.27 32.7124 176.077 33.2111 176.077C33.3698 176.077 33.5341 176.094 33.7041 176.128C33.8288 176.933 34.0044 177.335 34.2311 177.335C34.5031 177.335 34.6958 177.063 34.8091 176.519C34.9224 175.975 34.9791 175.046 34.9791 173.731ZM34.1121 160.607C34.0894 160.55 34.0781 160.494 34.0781 160.437C34.0781 160.369 34.0781 160.307 34.0781 160.25C34.0781 159.944 34.2028 159.7 34.4521 159.519C34.7128 159.326 35.0301 159.23 35.4041 159.23C35.7554 159.23 36.0388 159.338 36.2541 159.553C36.4808 159.757 36.5941 160.04 36.5941 160.403C36.5941 160.698 36.4638 160.936 36.2031 161.117C35.9538 161.298 35.6308 161.389 35.2341 161.389C34.9621 161.389 34.7184 161.321 34.5031 161.185C34.2991 161.049 34.1688 160.856 34.1121 160.607ZM47.3095 168.206H41.9715C41.8695 171.096 42.7365 172.541 44.5725 172.541C45.3545 172.541 46.1535 172.195 46.9695 171.504C47.1395 171.606 47.2699 171.782 47.3605 172.031C46.5785 172.904 45.5869 173.34 44.3855 173.34C41.6202 173.34 40.2375 171.714 40.2375 168.461C40.2375 166.92 40.6455 165.724 41.4615 164.874C42.2775 164.013 43.2295 163.582 44.3175 163.582C45.5075 163.582 46.3632 163.996 46.8845 164.823C47.4059 165.65 47.6665 166.727 47.6665 168.053C47.5532 168.144 47.4342 168.195 47.3095 168.206ZM44.2835 164.262C43.6942 164.262 43.1899 164.568 42.7705 165.18C42.3625 165.792 42.1132 166.574 42.0225 167.526H44.1305C44.9692 167.526 45.5699 167.475 45.9325 167.373C45.9325 166.444 45.7909 165.696 45.5075 165.129C45.2242 164.551 44.8162 164.262 44.2835 164.262ZM58.0602 166.098C57.8222 166.347 57.2612 166.466 56.3772 166.455C56.1958 165.027 55.6802 164.313 54.8302 164.313C54.1615 164.313 53.5948 164.698 53.1302 165.469C52.6655 166.24 52.4332 167.254 52.4332 168.512C52.4332 169.804 52.6372 170.801 53.0452 171.504C53.4532 172.195 54.0652 172.541 54.8812 172.541C55.7425 172.541 56.5868 172.19 57.4142 171.487C57.5842 171.589 57.7145 171.765 57.8052 172.014C56.9778 172.898 55.9408 173.34 54.6942 173.34C53.5042 173.34 52.5295 172.932 51.7702 172.116C51.0108 171.289 50.6312 170.076 50.6312 168.478C50.6312 166.948 51.0505 165.752 51.8892 164.891C52.7392 164.018 53.7082 163.582 54.7962 163.582C55.6575 163.582 56.4168 163.797 57.0742 164.228C57.7315 164.659 58.0602 165.282 58.0602 166.098ZM63.3934 161.882V164.313H65.7904C65.8131 164.449 65.8244 164.551 65.8244 164.619C65.8244 164.721 65.8131 164.84 65.7904 164.976L63.3934 165.333V170.008C63.3934 170.847 63.4671 171.442 63.6144 171.793C63.7731 172.133 64.0167 172.303 64.3454 172.303C64.6401 172.303 65.0991 172.184 65.7224 171.946C65.8357 172.048 65.9151 172.241 65.9604 172.524C65.6204 172.728 65.3597 172.881 65.1784 172.983C65.0084 173.074 64.7874 173.153 64.5154 173.221C64.2547 173.3 63.9771 173.34 63.6824 173.34C63.1157 173.34 62.6511 173.125 62.2884 172.694C61.9371 172.252 61.7614 171.583 61.7614 170.688V165.129L60.5714 164.976C60.5487 164.863 60.5374 164.766 60.5374 164.687C60.5374 164.596 60.5487 164.472 60.5714 164.313C60.8887 164.256 61.1607 164.16 61.3874 164.024C61.6254 163.877 61.8237 163.678 61.9824 163.429C62.1411 163.168 62.2601 162.942 62.3394 162.749C62.4301 162.545 62.5377 162.256 62.6624 161.882C62.7644 161.848 62.8891 161.831 63.0364 161.831C63.1724 161.831 63.2914 161.848 63.3934 161.882ZM87.2026 170.229V160.454L82.0686 173.51H81.6266L76.6796 160.879V170.229C76.6796 171.124 76.7022 171.787 76.7476 172.218L78.3286 172.422C78.3966 172.626 78.3966 172.83 78.3286 173.034C77.3539 173.011 76.6626 173 76.2546 173C75.5746 173 74.8889 173.017 74.1976 173.051C74.1522 172.802 74.1522 172.592 74.1976 172.422L75.7446 172.252V162.239C75.7446 161.344 75.7219 160.681 75.6766 160.25L74.2656 160.046C74.1976 159.853 74.1976 159.661 74.2656 159.468H78.0056L82.2726 170.654L86.6416 159.468C86.9022 159.479 87.2989 159.485 87.8316 159.485C87.9449 159.485 88.8346 159.468 90.5006 159.434C90.5686 159.638 90.5686 159.842 90.5006 160.046L89.0896 160.25C89.0442 160.681 89.0216 161.344 89.0216 162.239V172.252L90.3986 172.422C90.4439 172.592 90.4439 172.802 90.3986 173.051C89.6846 173.017 88.9082 173 88.0696 173C87.4576 173 86.6756 173.011 85.7236 173.034C85.6556 172.751 85.6556 172.547 85.7236 172.422L87.1346 172.218C87.1799 171.787 87.2026 171.124 87.2026 170.229ZM95.022 170.739C95.022 171.328 95.1297 171.748 95.345 171.997C95.5604 172.235 95.9004 172.354 96.365 172.354C96.705 172.354 97.079 172.252 97.487 172.048C97.9064 171.833 98.2917 171.527 98.643 171.13V168.478C97.4757 168.546 96.5804 168.756 95.957 169.107C95.3337 169.447 95.022 169.991 95.022 170.739ZM98.643 167.866V166.999C98.643 166.036 98.5297 165.339 98.303 164.908C98.0877 164.466 97.725 164.245 97.215 164.245C96.6937 164.245 96.2744 164.415 95.957 164.755C95.6397 165.084 95.4244 165.65 95.311 166.455C94.9484 166.534 94.682 166.574 94.512 166.574C94.07 166.574 93.8094 166.415 93.73 166.098C93.73 165.327 94.0644 164.715 94.733 164.262C95.4017 163.809 96.2347 163.582 97.232 163.582C98.3314 163.582 99.1077 163.809 99.561 164.262C100.026 164.704 100.258 165.503 100.258 166.659V171.453C100.258 171.736 100.275 171.98 100.309 172.184L101.652 172.354C101.697 172.524 101.697 172.739 101.652 173C100.847 173.034 99.9917 173.113 99.085 173.238C98.9944 173.147 98.9377 173.034 98.915 172.898L98.83 171.725C97.8894 172.802 96.841 173.34 95.685 173.34C94.971 173.34 94.41 173.136 94.002 172.728C93.6054 172.32 93.407 171.77 93.407 171.079C93.407 170.036 93.8774 169.249 94.818 168.716C95.77 168.183 97.045 167.9 98.643 167.866ZM110.92 166.931C110.92 166.058 110.801 165.446 110.563 165.095C110.336 164.744 109.951 164.568 109.407 164.568C108.568 164.568 107.724 165.197 106.874 166.455V172.133L108.251 172.388C108.296 172.569 108.296 172.796 108.251 173.068C107.537 173.034 106.806 173.017 106.058 173.017C105.537 173.017 104.8 173.028 103.848 173.051C103.78 172.836 103.78 172.615 103.848 172.388L105.191 172.201C105.236 171.578 105.259 170.858 105.259 170.042V165.384C105.259 165.157 105.242 164.948 105.208 164.755L103.865 164.585C103.82 164.415 103.82 164.2 103.865 163.939C104.647 163.882 105.622 163.763 106.789 163.582C106.891 163.695 106.948 163.809 106.959 163.922C106.902 164.217 106.874 164.721 106.874 165.435C107.769 164.2 108.778 163.582 109.9 163.582C111.657 163.582 112.535 164.415 112.535 166.081V172.133L113.912 172.388C113.957 172.569 113.957 172.796 113.912 173.068C113.198 173.034 112.467 173.017 111.719 173.017C111.198 173.017 110.461 173.028 109.509 173.051C109.441 172.836 109.441 172.615 109.509 172.388L110.852 172.201C110.897 171.578 110.92 170.858 110.92 170.042V166.931ZM117.987 170.739C117.987 171.328 118.095 171.748 118.31 171.997C118.526 172.235 118.866 172.354 119.33 172.354C119.67 172.354 120.044 172.252 120.452 172.048C120.872 171.833 121.257 171.527 121.608 171.13V168.478C120.441 168.546 119.546 168.756 118.922 169.107C118.299 169.447 117.987 169.991 117.987 170.739ZM121.608 167.866V166.999C121.608 166.036 121.495 165.339 121.268 164.908C121.053 164.466 120.69 164.245 120.18 164.245C119.659 164.245 119.24 164.415 118.922 164.755C118.605 165.084 118.39 165.65 118.276 166.455C117.914 166.534 117.647 166.574 117.477 166.574C117.035 166.574 116.775 166.415 116.695 166.098C116.695 165.327 117.03 164.715 117.698 164.262C118.367 163.809 119.2 163.582 120.197 163.582C121.297 163.582 122.073 163.809 122.526 164.262C122.991 164.704 123.223 165.503 123.223 166.659V171.453C123.223 171.736 123.24 171.98 123.274 172.184L124.617 172.354C124.663 172.524 124.663 172.739 124.617 173C123.813 173.034 122.957 173.113 122.05 173.238C121.96 173.147 121.903 173.034 121.88 172.898L121.795 171.725C120.855 172.802 119.806 173.34 118.65 173.34C117.936 173.34 117.375 173.136 116.967 172.728C116.571 172.32 116.372 171.77 116.372 171.079C116.372 170.036 116.843 169.249 117.783 168.716C118.735 168.183 120.01 167.9 121.608 167.866ZM128.343 173.187C128.445 173.232 128.53 173.329 128.598 173.476C128.224 173.782 128.037 174.241 128.037 174.853C128.037 175.397 128.287 175.833 128.785 176.162C129.284 176.491 129.93 176.655 130.723 176.655C131.539 176.655 132.219 176.502 132.763 176.196C133.307 175.901 133.579 175.482 133.579 174.938C133.579 174.349 133.472 173.912 133.256 173.629C133.041 173.357 132.61 173.193 131.964 173.136L128.785 172.847C128.434 172.802 128.139 172.62 127.901 172.303C127.675 171.974 127.561 171.657 127.561 171.351L128.7 169.464C128.179 169.169 127.782 168.778 127.51 168.291C127.25 167.804 127.119 167.305 127.119 166.795C127.119 165.832 127.476 165.055 128.19 164.466C128.904 163.877 129.726 163.582 130.655 163.582C131.551 163.582 132.338 163.82 133.018 164.296C133.075 162.743 133.653 161.939 134.752 161.882C135.047 161.95 135.194 162.194 135.194 162.613C135.194 162.84 135.172 163.089 135.126 163.361C134.684 163.395 134.322 163.542 134.038 163.803C133.755 164.052 133.551 164.341 133.426 164.67C133.993 165.237 134.276 165.945 134.276 166.795C134.276 167.69 133.914 168.438 133.188 169.039C132.463 169.628 131.619 169.923 130.655 169.923C130.145 169.923 129.686 169.855 129.278 169.719L128.7 171.232L132.933 171.657C133.591 171.736 134.089 171.98 134.429 172.388C134.781 172.785 134.956 173.306 134.956 173.952C134.956 175.085 134.548 175.952 133.732 176.553C132.916 177.165 131.811 177.471 130.417 177.471C129.261 177.471 128.36 177.261 127.714 176.842C127.068 176.423 126.745 175.862 126.745 175.159C126.745 174.683 126.898 174.258 127.204 173.884C127.51 173.521 127.89 173.289 128.343 173.187ZM128.649 166.795C128.649 167.452 128.831 168.013 129.193 168.478C129.567 168.943 130.06 169.175 130.672 169.175C131.273 169.175 131.766 168.948 132.151 168.495C132.537 168.03 132.729 167.464 132.729 166.795C132.729 166.07 132.537 165.469 132.151 164.993C131.777 164.506 131.284 164.262 130.672 164.262C130.094 164.262 129.613 164.506 129.227 164.993C128.842 165.48 128.649 166.081 128.649 166.795ZM144.585 168.206H139.247C139.145 171.096 140.012 172.541 141.848 172.541C142.63 172.541 143.429 172.195 144.245 171.504C144.415 171.606 144.546 171.782 144.636 172.031C143.854 172.904 142.863 173.34 141.661 173.34C138.896 173.34 137.513 171.714 137.513 168.461C137.513 166.92 137.921 165.724 138.737 164.874C139.553 164.013 140.505 163.582 141.593 163.582C142.783 163.582 143.639 163.996 144.16 164.823C144.682 165.65 144.942 166.727 144.942 168.053C144.829 168.144 144.71 168.195 144.585 168.206ZM141.559 164.262C140.97 164.262 140.466 164.568 140.046 165.18C139.638 165.792 139.389 166.574 139.298 167.526H141.406C142.245 167.526 142.846 167.475 143.208 167.373C143.208 166.444 143.067 165.696 142.783 165.129C142.5 164.551 142.092 164.262 141.559 164.262ZM160.334 166.931C160.334 165.356 159.83 164.568 158.821 164.568C157.96 164.568 157.144 165.163 156.373 166.353V172.133L157.75 172.388C157.795 172.569 157.795 172.796 157.75 173.068C157.036 173.034 156.311 173.017 155.574 173.017C155.053 173.017 154.316 173.028 153.364 173.051C153.296 172.836 153.296 172.615 153.364 172.388L154.707 172.201C154.752 171.578 154.775 170.858 154.775 170.042V166.931C154.775 165.356 154.271 164.568 153.262 164.568C152.752 164.568 152.304 164.727 151.919 165.044C151.534 165.35 151.137 165.832 150.729 166.489V172.133L152.106 172.388C152.151 172.569 152.151 172.796 152.106 173.068C151.392 173.034 150.667 173.017 149.93 173.017C149.409 173.017 148.672 173.028 147.72 173.051C147.652 172.836 147.652 172.615 147.72 172.388L149.063 172.201C149.108 171.578 149.131 170.858 149.131 170.042V165.384C149.131 165.157 149.114 164.948 149.08 164.755L147.737 164.585C147.692 164.415 147.692 164.2 147.737 163.939C148.496 163.882 149.465 163.763 150.644 163.582C150.746 163.695 150.803 163.809 150.814 163.922C150.757 164.217 150.729 164.721 150.729 165.435C151.624 164.2 152.633 163.582 153.755 163.582C154.344 163.582 154.883 163.735 155.37 164.041C155.857 164.336 156.169 164.795 156.305 165.418C157.212 164.194 158.215 163.582 159.314 163.582C160.005 163.582 160.612 163.786 161.133 164.194C161.666 164.602 161.932 165.231 161.932 166.081V172.133L163.309 172.388C163.354 172.569 163.354 172.796 163.309 173.068C162.595 173.034 161.87 173.017 161.133 173.017C160.612 173.017 159.875 173.028 158.923 173.051C158.855 172.836 158.855 172.615 158.923 172.388L160.266 172.201C160.311 171.578 160.334 170.858 160.334 170.042V166.931ZM172.913 168.206H167.575C167.473 171.096 168.34 172.541 170.176 172.541C170.958 172.541 171.757 172.195 172.573 171.504C172.743 171.606 172.873 171.782 172.964 172.031C172.182 172.904 171.19 173.34 169.989 173.34C167.224 173.34 165.841 171.714 165.841 168.461C165.841 166.92 166.249 165.724 167.065 164.874C167.881 164.013 168.833 163.582 169.921 163.582C171.111 163.582 171.967 163.996 172.488 164.823C173.009 165.65 173.27 166.727 173.27 168.053C173.157 168.144 173.038 168.195 172.913 168.206ZM169.887 164.262C169.298 164.262 168.793 164.568 168.374 165.18C167.966 165.792 167.717 166.574 167.626 167.526H169.734C170.573 167.526 171.173 167.475 171.536 167.373C171.536 166.444 171.394 165.696 171.111 165.129C170.828 164.551 170.42 164.262 169.887 164.262ZM183.12 166.931C183.12 166.058 183.001 165.446 182.763 165.095C182.536 164.744 182.151 164.568 181.607 164.568C180.768 164.568 179.924 165.197 179.074 166.455V172.133L180.451 172.388C180.496 172.569 180.496 172.796 180.451 173.068C179.737 173.034 179.006 173.017 178.258 173.017C177.736 173.017 177 173.028 176.048 173.051C175.98 172.836 175.98 172.615 176.048 172.388L177.391 172.201C177.436 171.578 177.459 170.858 177.459 170.042V165.384C177.459 165.157 177.442 164.948 177.408 164.755L176.065 164.585C176.019 164.415 176.019 164.2 176.065 163.939C176.847 163.882 177.821 163.763 178.989 163.582C179.091 163.695 179.147 163.809 179.159 163.922C179.102 164.217 179.074 164.721 179.074 165.435C179.969 164.2 180.978 163.582 182.1 163.582C183.856 163.582 184.735 164.415 184.735 166.081V172.133L186.112 172.388C186.157 172.569 186.157 172.796 186.112 173.068C185.398 173.034 184.667 173.017 183.919 173.017C183.397 173.017 182.661 173.028 181.709 173.051C181.641 172.836 181.641 172.615 181.709 172.388L183.052 172.201C183.097 171.578 183.12 170.858 183.12 170.042V166.931ZM191.122 161.882V164.313H193.519C193.541 164.449 193.553 164.551 193.553 164.619C193.553 164.721 193.541 164.84 193.519 164.976L191.122 165.333V170.008C191.122 170.847 191.195 171.442 191.343 171.793C191.501 172.133 191.745 172.303 192.074 172.303C192.368 172.303 192.827 172.184 193.451 171.946C193.564 172.048 193.643 172.241 193.689 172.524C193.349 172.728 193.088 172.881 192.907 172.983C192.737 173.074 192.516 173.153 192.244 173.221C191.983 173.3 191.705 173.34 191.411 173.34C190.844 173.34 190.379 173.125 190.017 172.694C189.665 172.252 189.49 171.583 189.49 170.688V165.129L188.3 164.976C188.277 164.863 188.266 164.766 188.266 164.687C188.266 164.596 188.277 164.472 188.3 164.313C188.617 164.256 188.889 164.16 189.116 164.024C189.354 163.877 189.552 163.678 189.711 163.429C189.869 163.168 189.988 162.942 190.068 162.749C190.158 162.545 190.266 162.256 190.391 161.882C190.493 161.848 190.617 161.831 190.765 161.831C190.901 161.831 191.02 161.848 191.122 161.882Z" fill="#D5B887"/>
</svg>
